<?xml version="1.0" standalone="no"?>
<!DOCTYPE svg PUBLIC "-//W3C//DTD SVG 1.1//EN" "http://www.w3.org/Graphics/SVG/1.1/DTD/svg11.dtd" >
<svg xmlns="http://www.w3.org/2000/svg" xmlns:xlink="http://www.w3.org/1999/xlink" version="1.1">
<metadata>
Created by FontForge 20170731 at Mon Sep 18 19:20:06 2017
 By Aleksey,,,
Copyright (c) 2008 Andreas Kalpakidis (hello@inderesting.com), with Reserved Font Name "Advent Pro"
</metadata>
<defs>
<font id="AdventPro-Regular" horiz-adv-x="484" >
  <font-face 
    font-family="Advent Pro"
    font-weight="400"
    font-stretch="normal"
    units-per-em="1000"
    panose-1="2 0 5 6 4 0 0 2 0 4"
    ascent="800"
    descent="-200"
    x-height="501"
    cap-height="700"
    bbox="-36 -219 1904 964"
    underline-thickness="50"
    underline-position="-150"
    unicode-range="U+0020-FB04"
  />
<missing-glyph horiz-adv-x="500" 
d="M0 700h500v-700h-500v700zM50 650v-600h400v600h-400zM250 305l-137 -205l-40 29l147 221l-147 221l40 29l137 -205l136 204l39 -32l-145 -217l145 -217l-39 -32z" />
    <glyph glyph-name="f_f" unicode="ff" horiz-adv-x="545" 
d="M311 561q0 31 11 59q-40 27 -82 27q-44 0 -75 -28.5t-31 -69.5v-48h114l-24 -53h-90v-448h-56v561q0 66 42.5 105.5t105.5 39.5q66 0 125 -42q39 35 96 35q36 0 65 -16l-20 -49q-22 11 -46 11q-35 0 -57 -25.5t-22 -70.5v-48h114l-24 -53h-90v-448h-56v561z" />
    <glyph glyph-name="f_i" unicode="fi" horiz-adv-x="395" 
d="M78 561q0 44 20 77.5t53.5 51.5t72.5 18q67 0 119 -48l-36 -37q-41 24 -81 24q-42 0 -67 -27.5t-25 -70.5v-48h114l-24 -53h-90v-448h-56v561zM306 501h56v-501h-56v501z" />
    <glyph glyph-name="f_l" unicode="fl" horiz-adv-x="395" 
d="M306 623q-41 24 -80 24q-41 0 -66.5 -27.5t-25.5 -70.5v-48h114l-24 -53h-90v-448h-56v561q0 66 42.5 105.5t106.5 39.5q72 0 135 -49v-657h-56v623z" />
    <glyph glyph-name="f_f_l" unicode="ffl" horiz-adv-x="625" 
d="M536 629q-39 21 -72 21q-42 0 -69.5 -28t-27.5 -65v-56h114l-24 -53h-90v-448h-56v561q0 31 11 59q-40 27 -82 27q-44 0 -75 -28.5t-31 -69.5v-48h114l-24 -53h-90v-448h-56v561q0 66 42.5 105.5t105.5 39.5q66 0 125 -42q45 42 111 42q36 0 71 -11.5t59 -28.5v-666h-56
v629z" />
    <glyph glyph-name="w_w_w" unicode="www" horiz-adv-x="1925" 
d="M1571 405l-102 -405h-77l-127 415l-128 -415h-77l-101 405l-102 -405h-77l-125 410l-127 -410h-77l-101 405l-102 -405h-77l-153 501h59l133 -443l113 443h57l110 -443l107 354l27 89h62l133 -443l113 443h57l110 -443l134 443h65l133 -443l113 443h57l110 -443l134 443
h59l-155 -501h-77z" />
    <glyph glyph-name="f_t" unicode="ft" horiz-adv-x="515" 
d="M331 38q-25 35 -25 94v491q-41 24 -80 24q-41 0 -66.5 -27.5t-25.5 -70.5v-48h114l-24 -53h-90v-448h-56v561q0 66 42.5 105.5t106.5 39.5q72 0 135 -49v-156h120l-24 -53h-96v-316q0 -80 66 -102l-16 -43q-56 16 -81 51z" />
    <glyph glyph-name="t_t" unicode="tt" horiz-adv-x="478" 
d="M278 448h-178v-316q0 -79 66 -102l-16 -43q-56 16 -81 51t-25 94v568h56v-199h179v199h56v-199h120l-24 -53h-96v-316q0 -79 66 -102l-16 -43q-56 16 -81 51t-25 94v318z" />
    <glyph glyph-name=".notdef" horiz-adv-x="500" 
d="M0 700h500v-700h-500v700zM50 650v-600h400v600h-400zM250 305l-137 -205l-40 29l147 221l-147 221l40 29l137 -205l136 204l39 -32l-145 -217l145 -217l-39 -32z" />
    <glyph glyph-name=".null" horiz-adv-x="0" 
 />
    <glyph glyph-name="nonmarkingreturn" horiz-adv-x="278" 
 />
    <glyph glyph-name="space" unicode=" " horiz-adv-x="278" 
 />
    <glyph glyph-name="exclam" unicode="!" horiz-adv-x="225" 
d="M79 673q0 18 9 27.5t24 9.5t24 -9t9 -27l-9 -554h-47zM88 10q-10 10 -10 23q0 14 10 23.5t23 9.5q14 0 23.5 -9.5t9.5 -23.5q0 -13 -9.5 -23t-23.5 -10q-13 0 -23 10z" />
    <glyph glyph-name="quotedbl" unicode="&#x22;" horiz-adv-x="426" 
d="M105 700q0 17 10 26t24 9t24 -9t10 -26l-14 -188h-40zM250 700q0 17 10 26t24 9t24 -9t10 -26l-14 -188h-40z" />
    <glyph glyph-name="numbersign" unicode="#" horiz-adv-x="613" 
d="M339 0h-55l44 189h-119l-44 -189h-55l44 189h-120v56h133l40 168h-173v56h186l54 231h55l-54 -231h119l54 231h55l-54 -231h133v-56h-146l-40 -168h186v-56h-199zM262 413l-40 -168h119l40 168h-119z" />
    <glyph glyph-name="dollar" unicode="$" horiz-adv-x="540" 
d="M243 -10q-65 5 -112 33.5t-71 69.5t-26 85h57q4 -48 45 -87.5t107 -46.5v310q-60 21 -99.5 42t-65.5 55.5t-26 86.5q0 40 21 77t64 62t106 31v109h56v-108q39 -1 67 -8t57 -21l-17 -53q-48 25 -107 28v-261q66 -23 109 -45.5t72 -61t29 -95.5q0 -87 -51 -141t-159 -61
v-104h-56v104zM145.5 615.5q-35.5 -30.5 -35.5 -80.5q0 -45 34.5 -72t98.5 -50v241q-62 -8 -97.5 -38.5zM407 85.5q42 34.5 42 101.5q0 56 -38.5 88t-111.5 59v-290q66 7 108 41.5z" />
    <glyph glyph-name="percent" unicode="%" horiz-adv-x="672" 
d="M601 740l40 -41l-572 -698l-35 40zM112 458.5q-33 19.5 -52.5 52.5t-19.5 72t19.5 72t52.5 52.5t72 19.5t72 -19.5t52.5 -52.5t19.5 -72t-19.5 -72t-52.5 -52.5t-72 -19.5t-72 19.5zM252 648.5q-26 28.5 -68 28.5t-68 -28.5t-26 -65.5t26 -65.5t68 -28.5t68 28.5t26 65.5
t-26 65.5zM423 8.5q-33 19.5 -52.5 52.5t-19.5 72t19.5 72t52.5 52.5t72 19.5t72 -19.5t52.5 -52.5t19.5 -72t-19.5 -72t-52.5 -52.5t-72 -19.5t-72 19.5zM563 198.5q-26 28.5 -68 28.5t-68 -28.5t-26 -65.5t26 -65.5t68 -28.5t68 28.5t26 65.5t-26 65.5z" />
    <glyph glyph-name="ampersand" unicode="&#x26;" horiz-adv-x="548" 
d="M417.5 25.5q-26.5 25.5 -33.5 61.5q-30 -50 -71 -74t-100 -24q-56 0 -96 26t-61 70t-21 96q0 72 32 122t75.5 78t102.5 54q-36 5 -63 41.5t-27 87.5q0 43 21.5 76.5t58 52t79.5 18.5q32 0 67 -12l-31 -46q-21 7 -42 7q-43 0 -70.5 -27.5t-27.5 -65.5q0 -8 1 -12
q6 -44 38 -67.5t72 -23.5q13 0 27 3l27 5v137h57v-125l73 16l12 -53l-85 -19v-287q0 -39 16 -68.5t50 -40.5l-16 -43q-38 11 -64.5 36.5zM172 337q-82 -52 -82 -156q0 -62 33.5 -100t95.5 -38q46 0 81.5 25.5t55 66t19.5 84.5v197q-121 -27 -203 -79z" />
    <glyph glyph-name="quotesingle" unicode="'" horiz-adv-x="172" 
d="M46 700q0 17 10 26t24 9t24 -9t10 -26l-14 -111h-40z" />
    <glyph glyph-name="parenleft" unicode="(" horiz-adv-x="281" 
d="M122.5 -74q-22.5 23 -33.5 57.5t-11 87.5v556q0 53 11 87.5t33.5 57.5t60.5 45l18 -37q-31 -24 -49 -57t-18 -87v-574q0 -54 18 -87t49 -57l-18 -37q-38 22 -60.5 45z" />
    <glyph glyph-name="parenright" unicode=")" horiz-adv-x="281" 
d="M127 -25q18 33 18 87v574q0 54 -18 87t-49 57l18 37q38 -22 60.5 -45t33.5 -57.5t11 -87.5v-556q0 -53 -11 -87.5t-33.5 -57.5t-60.5 -45l-18 37q31 24 49 57z" />
    <glyph glyph-name="asterisk" unicode="*" horiz-adv-x="352" 
d="M175 515l-65 -96l-45 31l65 91l-106 38l18 48l106 -40v113h53v-113l107 40l20 -48l-109 -38l66 -91l-41 -31z" />
    <glyph glyph-name="plus" unicode="+" horiz-adv-x="385" 
d="M167 358h-133v55h133v132h55v-132h132v-55h-132v-133h-55v133z" />
    <glyph glyph-name="comma" unicode="," horiz-adv-x="159" 
d="M46 -32q14 12 20.5 19.5t7.5 9.5l-10 3q-18 13 -18 36q1 12 10.5 21t22.5 9t24.5 -11.5t11.5 -25.5q1 -59 -64 -113l-40 28q21 12 35 24z" />
    <glyph glyph-name="hyphen" unicode="-" horiz-adv-x="410" 
d="M45 413h320v-55h-320v55z" />
    <glyph glyph-name="period" unicode="." horiz-adv-x="120" 
d="M21 10q-10 10 -10 23q0 14 10 23.5t23 9.5q14 0 23.5 -9.5t9.5 -23.5q0 -13 -9.5 -23t-23.5 -10q-13 0 -23 10z" />
    <glyph glyph-name="slash" unicode="/" horiz-adv-x="429" 
d="M348 817h57l-320 -931h-61z" />
    <glyph glyph-name="zero" unicode="0" horiz-adv-x="549" 
d="M421.5 36.5q-61.5 -47.5 -147.5 -47.5q-54 0 -102 19.5t-78.5 63.5t-30.5 113v322q0 103 56.5 156t155.5 53t153.5 -56t54.5 -154v-321q0 -101 -61.5 -148.5zM385.5 626q-42.5 37 -112.5 37t-112 -37t-42 -110v-330q0 -71 43.5 -107.5t110.5 -36.5q68 0 111.5 35.5
t43.5 109.5v329q0 73 -42.5 110z" />
    <glyph glyph-name="one" unicode="1" horiz-adv-x="209" 
d="M129 634q-16 -15 -36.5 -25.5t-36 -15t-19.5 -5.5l-13 53q0 -1 19 3t42.5 17.5t43.5 38.5h56v-700h-56v634z" />
    <glyph glyph-name="two" unicode="2" horiz-adv-x="399" 
d="M24 53l254 385q36 58 36 106q0 51 -34 82t-79 31q-38 0 -68 -24t-44 -63l-52 20q19 53 60.5 86.5t103.5 33.5q49 0 88.5 -21t61.5 -58t22 -83q0 -65 -44 -135l-240 -361h286v-52h-351v53z" />
    <glyph glyph-name="three" unicode="3" horiz-adv-x="438" 
d="M126.5 62.5q34.5 -18.5 74.5 -18.5q43 0 79 21t57 57t21 79q0 42 -20 77t-55 56.5t-76 23.5h-110l193 287h-219v55h287v-49l-159 -238h2q58 0 107 -28.5t77.5 -77t28.5 -106.5t-28.5 -107t-77.5 -77.5t-107 -28.5q-54 0 -101 25.5t-76 69.5l47 30q21 -32 55.5 -50.5z" />
    <glyph glyph-name="four" unicode="4" horiz-adv-x="493" 
d="M340 358h-316l194 342h58l-156 -287h220v287h56v-287h73l-19 -55h-54v-358h-56v358z" />
    <glyph glyph-name="five" unicode="5" horiz-adv-x="438" 
d="M126.5 62.5q34.5 -18.5 74.5 -18.5q43 0 79 21t57 57t21 79t-21 79t-57 57t-79 21h-144l36 342h265v-55h-216l-24 -232h83q58 0 107 -28.5t77.5 -77t28.5 -106.5t-28.5 -107t-77.5 -77.5t-107 -28.5q-54 0 -101 25.5t-76 69.5l47 30q21 -32 55.5 -50.5z" />
    <glyph glyph-name="six" unicode="6" horiz-adv-x="473" 
d="M47.5 570.5q23.5 54.5 78 92t142.5 37.5h35v-55h-39q-47 0 -89.5 -20.5t-69 -63.5t-26.5 -107v-122q21 38 63.5 59.5t93.5 21.5q58 0 107 -28.5t77.5 -77t28.5 -106.5t-28.5 -107t-77.5 -77.5t-107 -28.5t-106.5 28.5t-77 77.5t-28.5 107v260q0 55 23.5 109.5zM100 121.5
q21 -36.5 57 -57.5t79 -21t79.5 21t57.5 57.5t21 79.5t-21 79t-57.5 57t-79.5 21q-42 0 -77.5 -20t-57 -54.5t-22.5 -76.5v-6q0 -43 21 -79.5z" />
    <glyph glyph-name="seven" unicode="7" horiz-adv-x="442" 
d="M354 645h-330v55h394v-55l-319 -645h-62z" />
    <glyph glyph-name="eight" unicode="8" horiz-adv-x="474" 
d="M419 310.5q31 -49.5 31 -109.5q0 -58 -28.5 -107t-77.5 -77.5t-107 -28.5t-107 28.5t-77.5 77.5t-28.5 107q0 61 31 111t83 77q-35 24 -55 61.5t-20 82.5q0 48 23.5 88.5t63.5 64t88 23.5t88.5 -23.5t64 -64t23.5 -88.5q0 -45 -20.5 -83t-56.5 -62q51 -28 82 -77.5z
M323.5 448q36.5 35 36.5 85q0 51 -36 87t-86 36q-51 0 -87 -36t-36 -87q0 -49 34 -83.5t84 -36.5q54 0 90.5 35zM154.5 334.5q-34.5 -21.5 -54.5 -56.5t-20 -77q0 -43 21 -79t57 -57t79 -21t79 21t57 57t21 79q0 42 -21 77.5t-58 56.5t-85 23q-41 -2 -75.5 -23.5z" />
    <glyph glyph-name="nine" unicode="9" horiz-adv-x="473" 
d="M170 55h39q47 0 89.5 20.5t69 63.5t26.5 107v107q-30 -32 -70.5 -50t-86.5 -18q-58 0 -107 28.5t-77.5 77t-28.5 106.5t28.5 107t77.5 77.5t107 28.5t106.5 -28.5t77 -77.5t28.5 -107v-258q0 -55 -23.5 -109.5t-78 -92t-142.5 -37.5h-35v55zM316 360.5q36 20.5 57 57.5
t21 85q0 42 -21 76.5t-57.5 55t-78.5 20.5q-43 0 -79.5 -21t-57.5 -57.5t-21 -79.5t21 -79t57.5 -57t79.5 -21t79 20.5z" />
    <glyph glyph-name="colon" unicode=":" horiz-adv-x="114" 
d="M34 362q-10 10 -10 23q0 14 10 23.5t23 9.5q14 0 23.5 -9.5t9.5 -23.5q0 -13 -9.5 -23t-23.5 -10q-13 0 -23 10zM34 121q-10 10 -10 23q0 14 10 23.5t23 9.5q14 0 23.5 -9.5t9.5 -23.5q0 -13 -9.5 -23t-23.5 -10q-13 0 -23 10z" />
    <glyph glyph-name="semicolon" unicode=";" horiz-adv-x="153" 
d="M71 251q-10 10 -10 23q0 14 10 23.5t23 9.5q14 0 23.5 -9.5t9.5 -23.5q0 -13 -9.5 -23t-23.5 -10q-13 0 -23 10zM59 -32q14 12 20.5 19.5t7.5 9.5l-10 3q-18 13 -18 36q1 12 10.5 21t22.5 9t24.5 -11.5t11.5 -25.5q1 -59 -64 -113l-40 28q21 12 35 24z" />
    <glyph glyph-name="less" unicode="&#x3c;" horiz-adv-x="365" 
d="M24 358v1l278 278l39 -38l-241 -241l241 -240l-39 -38z" />
    <glyph glyph-name="equal" unicode="=" horiz-adv-x="368" 
d="M24 413h320v-55h-320v55zM24 308h320v-55h-320v55z" />
    <glyph glyph-name="greater" unicode="&#x3e;" horiz-adv-x="365" 
d="M265 358l-241 241l39 38l278 -278v-1l-278 -278l-39 38z" />
    <glyph glyph-name="question" unicode="?" horiz-adv-x="403" 
d="M164 212q0 45 11.5 78t27.5 54t43 50q31 33 40 46q33 46 33 94q0 51 -34.5 86.5t-82.5 35.5q-51 0 -86.5 -31.5t-35.5 -92.5h-56q0 48 20 88.5t60.5 64.5t97.5 24q49 0 89.5 -24t63.5 -64t23 -87q0 -60 -37 -113q-22 -32 -57 -65q-25 -25 -38 -43t-22 -49t-9 -82v-37v-26
h-51v93zM166 10q-10 10 -10 23q0 14 10 23.5t23 9.5q14 0 23.5 -9.5t9.5 -23.5q0 -13 -9.5 -23t-23.5 -10q-13 0 -23 10z" />
    <glyph glyph-name="at" unicode="@" horiz-adv-x="707" 
d="M598 416.5q3 23.5 18.5 44t51.5 31.5l15 -38q-34 -15 -34 -70l1 -213q0 -85 -51.5 -138.5t-128 -76t-154.5 -22.5q-81 0 -147 27t-105.5 83t-39.5 139v159q0 104 56 156.5t128 68.5q54 13 109 13q93 0 154 -42t61 -139l37 -16v-49l-37 16v-259q-131 -36 -211 -36
q-77 0 -122.5 34t-51.5 115v101q0 60 22 94t66 50q33 12 71 12q43 0 87.5 -12.5t79.5 -30.5q-6 58 -47.5 84t-103.5 26q-104 0 -173 -42t-69 -144v-152q0 -104 69 -152.5t174 -48.5q116 0 194 45t78 128v183q0 48 3 71.5zM397 397.5q-44 12.5 -83 12.5q-50 0 -81 -25.5
t-31 -82.5v-98q1 -49 33 -74.5t91 -25.5q61 0 150 29v234q-35 18 -79 30.5z" />
    <glyph glyph-name="A" unicode="A" horiz-adv-x="527" 
d="M377 245h-228l-78 -245h-59l224 700h53l228 -700h-60zM165 300h197l-100 313z" />
    <glyph glyph-name="B" unicode="B" horiz-adv-x="544" 
d="M78 700h221q82 0 129 -42t47 -128q0 -39 -13 -74t-53 -62l-1 -2v-1q44 -20 73.5 -65t29.5 -117q0 -86 -46.5 -147.5t-156.5 -61.5h-230v700zM385 443q32 30 32 87q0 117 -126 117h-157v-234h163q56 0 88 30zM412 89q39 36 39 124q0 70 -38 107.5t-90 37.5h-189v-305h172
q67 0 106 36z" />
    <glyph glyph-name="C" unicode="C" horiz-adv-x="436" 
d="M261 -10q-87 0 -141 46t-54 147v321q0 76 21.5 115t65.5 66q44 25 108 25q78 0 141 -33l-16 -38q-57 21 -108 21q-61 0 -108.5 -30t-47.5 -117v-328q0 -69 36 -106.5t108 -37.5q63 0 149 29l12 -47q-89 -33 -166 -33z" />
    <glyph glyph-name="D" unicode="D" horiz-adv-x="576" 
d="M78 701h188q113 0 172.5 -62t59.5 -165v-274q0 -200 -212 -200h-208v701zM417.5 578.5q-24.5 37.5 -62.5 54.5t-79 17h-142v-600h136q73 0 122.5 28.5t49.5 111.5v294q0 57 -24.5 94.5z" />
    <glyph glyph-name="E" unicode="E" horiz-adv-x="465" 
d="M78 700h334v-52h-278v-235h191l-19 -55h-172v-308h276v-50h-332v700z" />
    <glyph glyph-name="F" unicode="F" horiz-adv-x="445" 
d="M78 700h334v-53h-278v-234h171l-23 -55h-148v-358h-56v700z" />
    <glyph glyph-name="G" unicode="G" horiz-adv-x="537" 
d="M421 41q-52 -51 -145 -51q-56 0 -104 21t-77.5 66t-29.5 112v314q0 70 22.5 112.5t64.5 68.5q44 25 108 25q78 0 141 -33l-16 -38q-57 21 -108 21q-61 0 -108.5 -30t-47.5 -117v-325q0 -67 43.5 -105t110.5 -38q68 0 108 39t40 103v59h-66l-19 55h138v-300h-41z" />
    <glyph glyph-name="H" unicode="H" horiz-adv-x="588" 
d="M452 358h-318v-358h-56v700h56v-287h318v287h56v-700h-56v358z" />
    <glyph glyph-name="I" unicode="I" horiz-adv-x="264" 
d="M133 649l-67 2v49h123v-700h-56v649z" />
    <glyph glyph-name="J" unicode="J" horiz-adv-x="196" 
d="M71.5 27q24.5 27 24.5 87v535l-67 2v49h124v-582q0 -74 -33.5 -114.5t-92.5 -40.5l-13 37q33 0 57.5 27z" />
    <glyph glyph-name="K" unicode="K" horiz-adv-x="475" 
d="M183 345l-48 -76v-269h-56v701h56v-334l224 334h65l-205 -303l257 -398h-67z" />
    <glyph glyph-name="L" unicode="L" horiz-adv-x="440" 
d="M78 700h56v-650h305v-50h-361v700z" />
    <glyph glyph-name="M" unicode="M" horiz-adv-x="694" 
d="M558 535l-182 -535h-61l-181 535v-535h-56v700h56l211 -614l213 614h56v-700h-56v535z" />
    <glyph glyph-name="N" unicode="N" horiz-adv-x="650" 
d="M134 597v-597h-56v700h56l380 -597v597h56v-700h-56z" />
    <glyph glyph-name="O" unicode="O" horiz-adv-x="549" 
d="M421.5 36.5q-61.5 -47.5 -147.5 -47.5q-54 0 -102 19.5t-78.5 63.5t-30.5 113v322q0 103 56.5 156t155.5 53t153.5 -56t54.5 -154v-321q0 -101 -61.5 -148.5zM385.5 626q-42.5 37 -112.5 37t-112 -37t-42 -110v-330q0 -71 43.5 -107.5t110.5 -36.5q68 0 111.5 35.5
t43.5 109.5v329q0 73 -42.5 110z" />
    <glyph glyph-name="P" unicode="P" horiz-adv-x="545" 
d="M78 700h246q95 0 141.5 -58t46.5 -156q0 -63 -10 -113.5t-50 -89t-121 -38.5h-197v-245h-56v700zM415.5 330q27.5 30 34 68t6.5 85q0 82 -34 123t-94 41h-194v-347h198q56 0 83.5 30z" />
    <glyph glyph-name="Q" unicode="Q" horiz-adv-x="549" 
d="M266 -11q-84 3 -143.5 50t-59.5 146v322q0 103 56.5 156t155.5 53t153.5 -56t54.5 -154v-321q0 -87 -45.5 -133.5t-115.5 -58.5q28 -34 106 -33v-54q-120 0 -162 83zM385.5 626q-42.5 37 -112.5 37t-112 -37t-42 -110v-330q0 -64 35.5 -100.5t93.5 -42.5q-4 24 -4 58v73
h56v-72q0 -41 3 -58q57 7 91 42.5t34 100.5v329q0 73 -42.5 110z" />
    <glyph glyph-name="R" unicode="R" horiz-adv-x="564" 
d="M371 248q-18 -3 -40 -3h-197v-245h-56v700h246q95 0 141.5 -58t46.5 -156q0 -75 -16.5 -133t-71.5 -88l89 -265h-57zM415.5 330q27.5 30 34 68t6.5 85q0 82 -34 123t-94 41h-194v-347h198q56 0 83.5 30z" />
    <glyph glyph-name="S" unicode="S" horiz-adv-x="561" 
d="M119.5 113q22.5 -31 62 -50.5t90.5 -19.5q77 0 128.5 34.5t51.5 109.5q0 44 -25 73.5t-62 47t-101 40.5q-69 24 -110.5 44.5t-70 55.5t-28.5 90q0 44 25 83.5t75.5 64t124.5 24.5q49 0 81 -7t65 -23l-17 -53q-57 29 -127 29q-77 0 -123 -32t-46 -89q0 -36 23 -60.5
t56.5 -39.5t93.5 -36q73 -25 118 -46.5t76.5 -61t31.5 -99.5q0 -92 -58.5 -147.5t-180.5 -55.5q-74 0 -126.5 27.5t-80 71t-29.5 90.5h57q3 -34 25.5 -65z" />
    <glyph glyph-name="T" unicode="T" horiz-adv-x="402" 
d="M170 650h-170v50h402v-50h-176v-650h-56v650z" />
    <glyph glyph-name="U" unicode="U" horiz-adv-x="566" 
d="M495 701v-515q0 -101 -61.5 -147t-148.5 -46t-149 46t-62 147v515h56v-523q0 -61 44.5 -98t109.5 -37t110 37t45 98v523h56z" />
    <glyph glyph-name="V" unicode="V" horiz-adv-x="589" 
d="M78 700h60l179 -631l179 631h60l-200 -700h-77z" />
    <glyph glyph-name="W" unicode="W" horiz-adv-x="807" 
d="M427 599l-99 -599h-85l-165 700h60l143 -631l107 631h78l107 -631l141 631h60l-163 -700h-85z" />
    <glyph glyph-name="X" unicode="X" horiz-adv-x="628" 
d="M332 294l-185 -294h-69l221 352l-202 348h63l172 -294l174 294h63l-203 -348l219 -352h-69z" />
    <glyph glyph-name="Y" unicode="Y" horiz-adv-x="560" 
d="M429.5 66.5q17.5 26.5 17.5 85.5v142q-27 -24 -72 -36.5t-86 -12.5q-106 0 -167.5 52.5t-61.5 155.5v247h56v-257q0 -70 48 -106.5t125 -36.5q59 0 103 25t55 75v300h57v-544q0 -73 -27.5 -114.5t-77.5 -48.5l-13 37q26 10 43.5 36.5z" />
    <glyph glyph-name="Z" unicode="Z" horiz-adv-x="550" 
d="M31 50l410 599h-397v51h468v-50l-410 -599h416v-51h-487v50z" />
    <glyph glyph-name="bracketleft" unicode="[" horiz-adv-x="319" 
d="M78 817h161v-45l-105 -10v-821l105 -10v-45h-161v931z" />
    <glyph glyph-name="backslash" unicode="\" horiz-adv-x="492" 
d="M70 817h57l324 -931h-61z" />
    <glyph glyph-name="bracketright" unicode="]" horiz-adv-x="319" 
d="M78 -69l105 10v821l-105 10v45h161v-931h-161v45z" />
    <glyph glyph-name="asciicircum" unicode="^" horiz-adv-x="401" 
d="M116 719l-38 39l148 141l142 -141l-38 -39l-105 104z" />
    <glyph glyph-name="underscore" unicode="_" horiz-adv-x="353" 
d="M76 0h320v-55h-320v55z" />
    <glyph glyph-name="grave" unicode="`" horiz-adv-x="222" 
d="M51 682q-5 8 -5 16q0 13 8.5 23t24.5 10q24 0 34 -23l51 -118h-44z" />
    <glyph glyph-name="a" unicode="a" horiz-adv-x="458" 
d="M266 -11q-105 0 -167 39t-62 141v83q0 99 69 133q33 17 84 17q47 0 95 -15.5t81 -40.5q0 55 -32 87.5t-123 32.5l3 43q96 0 141.5 -30.5t56 -72.5t10.5 -108v-298q-108 -11 -156 -11zM278.5 336q-46.5 14 -85.5 14q-101 0 -101 -101v-87q0 -65 45 -94.5t128 -29.5
q43 0 101 8v257q-41 19 -87.5 33z" />
    <glyph glyph-name="b" unicode="b" horiz-adv-x="480" 
d="M426 71q-21 -35 -57 -53q-32 -16 -64.5 -23t-69.5 -7t-102 7l-55 5v700h56v-226q24 17 58.5 26t71.5 9q57 0 98 -19q85 -39 85 -144v-189q0 -51 -21 -86zM356.5 431.5q-35.5 27.5 -91.5 27.5q-34 0 -69 -9.5t-62 -24.5v-377q59 -9 97 -9q161 0 161 117v187
q0 61 -35.5 88.5z" />
    <glyph glyph-name="c" unicode="c" horiz-adv-x="383" 
d="M238 -10q-54 0 -90 12q-59 20 -85.5 61.5t-26.5 116.5v128q0 99 52 150.5t134 51.5q65 0 134 -32l-16 -41q-57 23 -110 23q-62 0 -100 -35.5t-38 -110.5v-145q0 -69 41.5 -100t110.5 -31q45 0 102 13l12 -45q-62 -16 -120 -16z" />
    <glyph glyph-name="d" unicode="d" horiz-adv-x="480" 
d="M163 490q41 19 98 19q37 0 71.5 -9t58.5 -26v226h56v-700l-55 -5q-65 -7 -102 -7t-69.5 7t-64.5 23q-36 18 -57 53t-21 86v189q0 105 85 144zM329 449.5q-35 9.5 -69 9.5q-56 0 -91.5 -27.5t-35.5 -88.5v-187q0 -117 161 -117q38 0 97 9v377q-27 15 -62 24.5z" />
    <glyph glyph-name="e" unicode="e" horiz-adv-x="434" 
d="M288 0q-46 -12 -92 -12q-74 0 -117.5 36.5t-43.5 109.5v205q0 81 50.5 126t133.5 45t129.5 -44.5t46.5 -123.5v-130l-304 -17v-61q0 -48 31 -72t81 -24q70 0 145 40l22 -43q-36 -23 -82 -35zM300 436.5q-39 25.5 -82 25.5q-55 0 -91 -30t-36 -94v-88l248 12v87
q0 62 -39 87.5z" />
    <glyph glyph-name="f" unicode="f" horiz-adv-x="294" 
d="M78 549q0 83 42 122t104 39q19 0 37 -3l-9 -49q-18 2 -26 2q-92 0 -92 -111v-48h114l-24 -53h-90v-448h-56v549z" />
    <glyph glyph-name="g" unicode="g" horiz-adv-x="448" 
d="M358 -63v124q-42 -73 -135 -73q-88 0 -137 48t-49 140v149q0 88 51.5 136.5t138.5 48.5q93 0 135 -67l-4 58h56v-565q0 -60 -25 -94t-82 -52l-15 43q66 25 66 104zM318 428.5q-40 30.5 -95 30.5q-53 0 -91.5 -32.5t-38.5 -106.5v-153q0 -63 35.5 -95t94.5 -32
q56 0 95.5 34.5t39.5 98.5v163q0 62 -40 92.5z" />
    <glyph glyph-name="h" unicode="h" horiz-adv-x="493" 
d="M378 343q0 61 -35.5 88.5t-91.5 27.5q-34 0 -69 -9.5t-62 -24.5v-425h-56v700h56v-226q25 17 60 26.5t73 9.5q52 0 95 -19q40 -18 62.5 -54t22.5 -91v-346h-55v343z" />
    <glyph glyph-name="i" unicode="i" horiz-adv-x="225" 
d="M88.5 653.5q-10.5 10.5 -10.5 23.5t10 23t24 10t23.5 -9.5t9.5 -23.5t-10 -24t-23 -10t-23.5 10.5zM83 501h56v-501h-56v501z" />
    <glyph glyph-name="j" unicode="j" horiz-adv-x="193" 
d="M73.5 653.5q-10.5 10.5 -10.5 23.5t10 23t24 10t23.5 -9.5t9.5 -23.5t-10 -24t-23 -10t-23.5 10.5zM23 449l-23 52h124v-576q-2 -58 -36 -96t-88 -38l-7 43q0 -3 21 6.5t37.5 34t16.5 69.5v502z" />
    <glyph glyph-name="k" unicode="k" horiz-adv-x="434" 
d="M175 317l-52 -45v-272h-56v700h56v-365l200 185l40 -39l-148 -129q68 -113 219 -352h-67z" />
    <glyph glyph-name="l" unicode="l" horiz-adv-x="214" 
d="M78 700h56v-700h-56v700z" />
    <glyph glyph-name="m" unicode="m" horiz-adv-x="735" 
d="M647 343q0 60 -31.5 88t-81.5 28q-39 0 -87 -17l-37 -18q17 -34 17 -78v-346h-55v343q0 61 -31.5 88.5t-82.5 27.5q-31 0 -64 -9.5t-60 -24.5v-425h-56v501h56l-5 -32q66 39 135 39q36 0 67.5 -12t53.5 -35q14 8 42 22q59 27 114 27q71 0 116 -43.5t45 -120.5v-346h-55
v343z" />
    <glyph glyph-name="n" unicode="n" horiz-adv-x="500" 
d="M378 343q0 61 -35.5 88.5t-91.5 27.5q-34 0 -69 -9.5t-62 -24.5v-425h-56v501h56l-4 -34q24 21 61 31.5t77 10.5q55 0 94 -18q40 -18 62.5 -54t22.5 -91v-346h-55v343z" />
    <glyph glyph-name="o" unicode="o" 
d="M405 45q-46 -55 -139 -55t-140.5 55.5t-47.5 138.5v132q0 95 48.5 145.5t139.5 50.5q87 0 136 -52.5t49 -143.5v-132q0 -84 -46 -139zM360.5 426q-34.5 35 -94.5 35q-62 0 -97 -35t-35 -110v-142q0 -60 35.5 -97t96.5 -37q62 0 95.5 36.5t33.5 97.5v142q0 75 -34.5 110z
" />
    <glyph glyph-name="p" unicode="p" horiz-adv-x="488" 
d="M78 501h56l-5 -51q27 29 63.5 44t72.5 15q93 0 141.5 -54t48.5 -140v-139q0 -91 -51 -139.5t-135 -48.5q-43 0 -76 12t-59 42v-230l-56 -22v711zM360.5 425q-38.5 33 -91.5 33q-54 0 -93 -32.5t-42 -101.5v-158q0 -65 37 -96t98 -31q55 0 92.5 32.5t37.5 94.5v153
q0 73 -38.5 106z" />
    <glyph glyph-name="q" unicode="q" horiz-adv-x="448" 
d="M358 42q-26 -30 -59 -42t-76 -12q-84 0 -135 48.5t-51 139.5v138q0 86 48.5 140.5t141.5 54.5q36 0 72.5 -16t63.5 -45l-5 53h56v-711l-56 22v230zM316 425.5q-39 32.5 -93 32.5q-53 0 -91.5 -33.5t-38.5 -106.5v-152q0 -62 37.5 -94.5t92.5 -32.5q61 0 98 31t37 96v158
q-3 69 -42 101.5z" />
    <glyph glyph-name="r" unicode="r" horiz-adv-x="333" 
d="M61 501h56l-3 -35q47 44 123 44q27 0 74 -9l-15 -51q-32 10 -67 10q-46 0 -79 -17t-33 -51v-392h-56v501z" />
    <glyph glyph-name="s" unicode="s" horiz-adv-x="431" 
d="M134 59.5q39 -22.5 87 -22.5q45 0 82 20.5t37 66.5q0 30 -17.5 49.5t-43.5 31.5t-70 26q-49 16 -80 30t-54 39.5t-27 64.5l-1 12q0 33 18.5 64.5t57 51.5t96.5 20q32 0 56.5 -6.5t38.5 -13.5t17 -9l-19 -46q-3 2 -14.5 8t-32.5 12t-46 6q-48 0 -82 -22.5t-34 -62.5
q0 -38 31 -58t95 -40q54 -18 87 -34t56.5 -45.5t23.5 -76.5q0 -60 -44.5 -100t-130.5 -40q-57 0 -98.5 19.5t-63 51.5t-23.5 71h53q6 -45 45 -67.5z" />
    <glyph glyph-name="t" unicode="t" horiz-adv-x="243" 
d="M69 38q-25 35 -25 94v568h56v-199h120l-24 -53h-96v-316q0 -80 66 -102l-16 -43q-56 16 -81 51z" />
    <glyph glyph-name="u" unicode="u" horiz-adv-x="447" 
d="M358 51q-24 -30 -60.5 -46t-73.5 -16q-188 0 -188 183v329h56v-336q0 -64 35.5 -95t96.5 -31q60 0 94.5 30.5t34.5 95.5v336h56v-501h-55z" />
    <glyph glyph-name="v" unicode="v" horiz-adv-x="424" 
d="M18 501h59l133 -443l134 443h59l-155 -501h-77z" />
    <glyph glyph-name="w" unicode="w" horiz-adv-x="704" 
d="M350 405l-102 -405h-77l-153 501h59l133 -443l113 443h57l110 -443l134 443h59l-155 -501h-77z" />
    <glyph glyph-name="x" unicode="x" horiz-adv-x="489" 
d="M267 197l-123 -197h-66l156 249l-156 252h63l126 -200l126 200h63l-157 -252l157 -249h-66z" />
    <glyph glyph-name="y" unicode="y" horiz-adv-x="480" 
d="M359 -63v112q-19 -32 -57 -46.5t-82 -14.5q-88 0 -135.5 47.5t-47.5 140.5v325h54v-335q0 -64 35 -95.5t94 -31.5q62 0 100 31t38 96v197q0 48 3 71.5t18.5 44t51.5 31.5l15 -38q-34 -15 -34 -70v-463q0 -61 -24 -96t-81 -53l-15 43q67 25 67 104z" />
    <glyph glyph-name="z" unicode="z" horiz-adv-x="478" 
d="M78 50l275 400h-266v51h337v-50l-277 -400h298v-51h-367v50z" />
    <glyph glyph-name="braceleft" unicode="{" horiz-adv-x="309" 
d="M191 -62.5q-22 27.5 -30.5 72.5t-8.5 130v107q0 27 -21 52.5t-53 54.5q24 19 48 50t24 58v105q0 84 8.5 129t30.5 72.5t67 53.5l18 -37q-32 -24 -50 -57t-18 -87v-185q0 -26 -18.5 -53t-39.5 -48q60 -60 60 -102v-188q0 -54 18 -87t50 -57l-18 -37q-45 26 -67 53.5z" />
    <glyph glyph-name="bar" unicode="|" horiz-adv-x="214" 
d="M78 817h56v-931h-56v931z" />
    <glyph glyph-name="braceright" unicode="}" horiz-adv-x="309" 
d="M128 -22q18 33 18 87v188q0 42 60 102q-21 21 -39.5 48t-18.5 53v185q0 54 -18 87t-50 57l18 37q45 -26 67 -53.5t30.5 -72.5t8.5 -129v-105q0 -27 24 -58t48 -50q-32 -29 -53 -54.5t-21 -52.5v-107q0 -85 -8.5 -130t-30.5 -72.5t-67 -53.5l-18 37q32 24 50 57z" />
    <glyph glyph-name="asciitilde" unicode="~" horiz-adv-x="516" 
d="M376 285q-33 0 -95 18q-31 9 -51.5 13.5t-39.5 4.5q-51 0 -86 -40l-26 38q46 56 112 56q21 0 43.5 -4.5t53.5 -13.5q23 -6 46.5 -11t41.5 -5q48 0 81 38l27 -38q-43 -56 -107 -56z" />
    <glyph glyph-name="exclamdown" unicode="&#xa1;" horiz-adv-x="225" 
d="M88 654q-10 10 -10 23q0 14 10 23.5t23 9.5q14 0 23.5 -9.5t9.5 -23.5q0 -13 -9.5 -23t-23.5 -10q-13 0 -23 10zM136 590l9 -554q0 -18 -9 -27t-24 -9t-24 9.5t-9 27.5l10 553h47z" />
    <glyph glyph-name="cent" unicode="&#xa2;" horiz-adv-x="433" 
d="M238 -8q-19 2 -48 10q-59 20 -85.5 61.5t-26.5 116.5v128q0 91 44 141.5t116 58.5v115h55v-115q53 -6 105 -30l-16 -41q-49 18 -89 22v-421q43 0 95 13l12 -45q-57 -15 -107 -16v-104h-55v106zM162 412.5q-28 -35.5 -28 -98.5v-145q0 -108 104 -127v415q-48 -9 -76 -44.5
z" />
    <glyph glyph-name="sterling" unicode="&#xa3;" horiz-adv-x="471" 
d="M78 50q51 26 82.5 73t31.5 102q0 29 -14 78h-77v55h59q-17 53 -26 88.5t-9 68.5q0 58 25 102t69 68t99 24q69 0 109 -25l-18 -49q-41 23 -91 23q-60 0 -99 -39.5t-39 -105.5q0 -23 8.5 -54t24.5 -80l7 -21h201v-55h-184q13 -50 12 -82q-3 -53 -25 -97.5t-61 -68.5h275
v-55h-360v50z" />
    <glyph glyph-name="currency" unicode="&#xa4;" horiz-adv-x="462" 
d="M253 148q-62 0 -107 36l-33 -35l-32 33l32 34q-35 48 -35 107q0 58 34 105l-31 33l33 33l31 -32q48 37 108 37t106 -35l32 31l34 -35l-31 -31q35 -48 35 -106q0 -60 -37 -108l33 -33l-32 -32l-33 33q-48 -35 -107 -35zM339 410q-36 36 -86 36q-51 0 -87 -36t-36 -87
q0 -50 36 -85t87 -35q50 0 86 35t36 85q0 51 -36 87z" />
    <glyph glyph-name="yen" unicode="&#xa5;" horiz-adv-x="583" 
d="M286 253h-131v55h131v32l-11 18h-120v55h88l-165 287h63l168 -287h8l170 287h63l-167 -287h92v-55h-124l-9 -16v-34h133v-55h-133v-253h-56v253z" />
    <glyph glyph-name="section" unicode="&#xa7;" horiz-adv-x="586" 
d="M160.5 -73q22.5 -31 62 -50.5t90.5 -19.5q76 0 128 34.5t52 109.5q0 44 -25 73.5t-62 47t-101 40.5q-69 24 -110.5 44.5t-70 55.5t-28.5 90q0 52 32 93q-32 40 -32 95q0 44 25 83.5t75.5 64t124.5 24.5q49 0 81 -7t65 -23l-17 -53q-57 29 -127 29q-77 0 -123 -32t-46 -89
q0 -36 23 -60.5t56.5 -39.5t93.5 -36q73 -25 118 -46.5t76.5 -61t31.5 -99.5q0 -59 -23 -102q23 -35 23 -86q0 -92 -58.5 -147.5t-180.5 -55.5q-74 0 -126.5 27.5t-80 71t-29.5 90.5h57q3 -34 25.5 -65zM493 189q0 44 -25 73t-61.5 46.5t-100.5 40.5q-92 31 -135 59
q-17 -26 -17 -59q0 -36 23 -60.5t57.5 -40.5t92.5 -35q58 -20 94 -35.5t65 -37.5q7 26 7 49z" />
    <glyph glyph-name="dieresis" unicode="&#xa8;" horiz-adv-x="222" 
d="M10 674q-10 10 -10 23q0 14 10 23.5t23 9.5q14 0 23.5 -9.5t9.5 -23.5q0 -13 -9.5 -23t-23.5 -10q-13 0 -23 10zM166 674q-10 10 -10 23q0 14 10 23.5t23 9.5q14 0 23.5 -9.5t9.5 -23.5q0 -13 -9.5 -23t-23.5 -10q-13 0 -23 10z" />
    <glyph glyph-name="copyright" unicode="&#xa9;" horiz-adv-x="800" 
d="M213 -77.5q-86 49.5 -137 135.5t-51 191q0 104 50 189t136 134t190 49q103 0 188.5 -49t135 -134t49.5 -189q0 -105 -50.5 -191t-136 -135.5t-186.5 -49.5q-102 0 -188 49.5zM559 -31q72 41 114.5 114.5t42.5 165.5q0 87 -42.5 159.5t-115 115t-157.5 42.5
q-87 0 -159.5 -40.5t-115 -113t-42.5 -163.5q0 -93 42.5 -166.5t115 -114t159.5 -40.5q86 0 158 41zM529 59.5q-54 -43.5 -124 -43.5q-66 0 -114.5 30t-74 82.5t-25.5 118.5q0 62 25 114.5t73 84.5t114 32q73 0 128 -43t67 -112h-63q-8 40 -45 68t-86 28q-76 0 -113.5 -49
t-37.5 -121q0 -75 39 -125t113 -50q50 0 86.5 28.5t43.5 72.5h64q-16 -72 -70 -115.5z" />
    <glyph glyph-name="ordfeminine" unicode="&#xaa;" horiz-adv-x="380" 
d="M230 379q-72 0 -112 31.5t-40 108.5q0 52 27.5 82t74.5 30q53 0 115 -39q0 32 -27.5 53t-89.5 21l3 43q67 0 103.5 -18t49.5 -51t13 -85v-164q-82 -12 -117 -12zM181 583q-56 0 -56 -70q0 -44 27 -66t73 -22q28 0 70 10v108q-71 40 -114 40z" />
    <glyph glyph-name="guillemotleft" unicode="&#xab;" horiz-adv-x="488" 
d="M42 267v1l187 187l37 -38l-150 -150l148 -153l-35 -34zM262 267v1l187 187l37 -38l-150 -150l148 -153l-35 -34z" />
    <glyph glyph-name="uni00AD" unicode="&#xad;" horiz-adv-x="410" 
d="M45 413h320v-55h-320v55z" />
    <glyph glyph-name="registered" unicode="&#xae;" horiz-adv-x="800" 
d="M213 -77.5q-86 49.5 -137 135.5t-51 191q0 104 50 189t136 134t190 49q103 0 188.5 -49t135 -134t49.5 -189q0 -105 -50.5 -191t-136 -135.5t-186.5 -49.5q-102 0 -188 49.5zM559 -31q72 41 114.5 114.5t42.5 165.5q0 87 -42.5 159.5t-115 115t-157.5 42.5
q-87 0 -159.5 -40.5t-115 -113t-42.5 -163.5q0 -93 42.5 -166.5t115 -114t159.5 -40.5q86 0 158 41zM401 229h-81v-190h-56v437h160q75 0 114 -34t39 -91q0 -52 -31.5 -81.5t-83.5 -35.5l125 -195h-67zM487 295q33 13 33 59q0 39 -32 55t-75 16h-93v-143h74q60 0 93 13z" />
    <glyph glyph-name="macron" unicode="&#xaf;" horiz-adv-x="332" 
d="M78 677h221v-58h-221v58z" />
    <glyph glyph-name="degree" unicode="&#xb0;" horiz-adv-x="399" 
d="M150 440.5q-33 19.5 -52.5 52.5t-19.5 72t19.5 72t52.5 52.5t72 19.5t72 -19.5t52.5 -52.5t19.5 -72t-19.5 -72t-52.5 -52.5t-72 -19.5t-72 19.5zM290 630.5q-26 28.5 -68 28.5t-68 -28.5t-26 -65.5t26 -65.5t68 -28.5t68 28.5t26 65.5t-26 65.5z" />
    <glyph glyph-name="plusminus" unicode="&#xb1;" horiz-adv-x="431" 
d="M78 292h133v66h-133v55h133v132h55v-132h132v-55h-132v-66h132v-55h-320v55z" />
    <glyph glyph-name="acute" unicode="&#xb4;" horiz-adv-x="222" 
d="M97 706q10 23 34 23q15 0 24 -10t9 -22q0 -9 -5 -17l-69 -92h-44z" />
    <glyph glyph-name="uni00B5" unicode="&#xb5;" horiz-adv-x="478" 
d="M395.5 1q-12.5 7 -22.5 24q-37 -37 -114 -37q-15 0 -23 1q-43 5 -73.5 16.5t-47 21t-21.5 11.5v-248l-57 9v702h57v-396q17 -17 61 -41t102 -24q103 0 103 113v345l57 12v-441q0 -5 6 -19t21 -23l-27 -33q-9 0 -21.5 7z" />
    <glyph glyph-name="paragraph" unicode="&#xb6;" horiz-adv-x="669" 
d="M580 698l-68 1v-897h-56v444h-201q-82 0 -120.5 40.5t-47.5 96.5t-9 141q0 100 46 163t140 63h372v-949h-56v897z" />
    <glyph glyph-name="cedilla" unicode="&#xb8;" horiz-adv-x="249" 
d="M141 -159q16 -4 37 -4q24 0 43 10.5t19 31.5q0 16 -11 26.5t-31 10.5q-14 0 -35 -8l-34 -14l-17 28l61 78h42l-40 -53q9 6 36 6q34 0 57.5 -19.5t23.5 -54.5q0 -48 -37 -68.5t-87 -20.5q-40 0 -92 19l24 53q25 -17 41 -21z" />
    <glyph glyph-name="guillemotright" unicode="&#xbb;" horiz-adv-x="512" 
d="M153 267l-150 150l37 38l187 -187v-1l-187 -187l-35 34zM373 267l-150 150l37 38l187 -187v-1l-187 -187l-35 34z" />
    <glyph glyph-name="questiondown" unicode="&#xbf;" horiz-adv-x="466" 
d="M245 653q-10 10 -10 23q0 14 10 23.5t23 9.5q14 0 23.5 -9.5t9.5 -23.5q0 -13 -9.5 -23t-23.5 -10q-13 0 -23 10zM413 88.5q-20 -40.5 -60.5 -64.5t-97.5 -24q-49 0 -89.5 24t-63.5 64t-23 87q0 60 37 113q22 32 57 65q25 25 38 43t22 49t9 82v37v26h51v-93
q0 -45 -11.5 -78t-27.5 -54t-43 -50q-31 -33 -40 -46q-33 -46 -33 -94q0 -51 34.5 -86.5t82.5 -35.5q51 0 86.5 31.5t35.5 92.5h56q0 -48 -20 -88.5z" />
    <glyph glyph-name="Agrave" unicode="&#xc0;" horiz-adv-x="527" 
d="M161 825q-5 8 -5 16q0 13 8.5 23t24.5 10q24 0 34 -23l51 -118h-44zM377 245h-228l-78 -245h-59l224 700h53l228 -700h-60zM165 300h197l-100 313z" />
    <glyph glyph-name="Aacute" unicode="&#xc1;" horiz-adv-x="527" 
d="M293 849q10 23 34 23q15 0 24 -10t9 -22q0 -9 -5 -17l-69 -92h-44zM377 245h-228l-78 -245h-59l224 700h53l228 -700h-60zM165 300h197l-100 313z" />
    <glyph glyph-name="Acircumflex" unicode="&#xc2;" horiz-adv-x="527" 
d="M156 733l-38 39l148 141l142 -141l-38 -39l-105 104zM377 245h-228l-78 -245h-59l224 700h53l228 -700h-60zM165 300h197l-100 313z" />
    <glyph glyph-name="Atilde" unicode="&#xc3;" horiz-adv-x="527" 
d="M339 729q-17 0 -32 5t-42 16q-44 21 -71 21q-37 0 -73 -37l-25 39q45 52 95 52q18 0 34 -5t42 -16q26 -10 40 -14.5t29 -4.5q37 0 69 35l25 -39q-43 -52 -91 -52zM377 245h-228l-78 -245h-59l224 700h53l228 -700h-60zM165 300h197l-100 313z" />
    <glyph glyph-name="Adieresis" unicode="&#xc4;" horiz-adv-x="527" 
d="M161 741q-10 10 -10 23q0 14 10 23.5t23 9.5q14 0 23.5 -9.5t9.5 -23.5q0 -13 -9.5 -23t-23.5 -10q-13 0 -23 10zM317 741q-10 10 -10 23q0 14 10 23.5t23 9.5q14 0 23.5 -9.5t9.5 -23.5q0 -13 -9.5 -23t-23.5 -10q-13 0 -23 10zM377 245h-228l-78 -245h-59l224 700h53
l228 -700h-60zM165 300h197l-100 313z" />
    <glyph glyph-name="Aring" unicode="&#xc5;" horiz-adv-x="527" 
d="M377 245h-228l-78 -245h-59l212 664q-33 12 -53.5 41t-20.5 65q0 47 33.5 80t79.5 33q47 0 80 -33t33 -80q0 -36 -21 -65.5t-54 -40.5l216 -664h-60zM311.5 818.5q-19.5 19.5 -48.5 19.5q-28 0 -48 -19.5t-20 -48.5q0 -28 20 -48t48 -20q29 0 48.5 20t19.5 48
q0 29 -19.5 48.5zM165 300h197l-100 313z" />
    <glyph glyph-name="AE" unicode="&#xc6;" horiz-adv-x="812" 
d="M445 245h-180l-128 -245h-59l366 700h335v-52h-278v-235h191l-19 -55h-172v-308h276v-50h-333zM293 300h152v290z" />
    <glyph glyph-name="Ccedilla" unicode="&#xc7;" horiz-adv-x="436" 
d="M266 -10l-32 -43q9 6 36 6q34 0 57.5 -19.5t23.5 -54.5q0 -48 -37 -68.5t-87 -20.5q-40 0 -92 19l24 53q25 -17 41 -21t37 -4q24 0 43 10.5t19 31.5q0 16 -11 26.5t-31 10.5q-14 0 -35 -8l-34 -14l-17 28l54 70q-72 8 -115.5 54t-43.5 137v321q0 76 21.5 115t65.5 66
q44 25 108 25q78 0 141 -33l-16 -38q-57 21 -108 21q-61 0 -108.5 -30t-47.5 -117v-328q0 -69 36 -106.5t108 -37.5q63 0 149 29l12 -47q-82 -31 -161 -33z" />
    <glyph glyph-name="Egrave" unicode="&#xc8;" horiz-adv-x="465" 
d="M155 824q-5 8 -5 16q0 13 8.5 23t24.5 10q24 0 34 -23l51 -118h-44zM78 700h334v-52h-278v-235h191l-19 -55h-172v-308h276v-50h-332v700z" />
    <glyph glyph-name="Eacute" unicode="&#xc9;" horiz-adv-x="465" 
d="M288 848q10 23 34 23q15 0 24 -10t9 -22q0 -9 -5 -17l-69 -92h-44zM78 700h334v-52h-278v-235h191l-19 -55h-172v-308h276v-50h-332v700z" />
    <glyph glyph-name="Ecircumflex" unicode="&#xca;" horiz-adv-x="465" 
d="M139 733l-38 39l148 141l142 -141l-38 -39l-105 104zM78 700h334v-52h-278v-235h191l-19 -55h-172v-308h276v-50h-332v700z" />
    <glyph glyph-name="Edieresis" unicode="&#xcb;" horiz-adv-x="465" 
d="M141 741q-10 10 -10 23q0 14 10 23.5t23 9.5q14 0 23.5 -9.5t9.5 -23.5q0 -13 -9.5 -23t-23.5 -10q-13 0 -23 10zM297 741q-10 10 -10 23q0 14 10 23.5t23 9.5q14 0 23.5 -9.5t9.5 -23.5q0 -13 -9.5 -23t-23.5 -10q-13 0 -23 10zM78 700h334v-52h-278v-235h191l-19 -55
h-172v-308h276v-50h-332v700z" />
    <glyph glyph-name="Igrave" unicode="&#xcc;" horiz-adv-x="290" 
d="M83 824q-5 8 -5 16q0 13 8.5 23t24.5 10q24 0 34 -23l51 -118h-44zM154 649l-67 2v49h123v-700h-56v649z" />
    <glyph glyph-name="Iacute" unicode="&#xcd;" horiz-adv-x="350" 
d="M203 848q10 23 34 23q15 0 24 -10t9 -22q0 -9 -5 -17l-69 -92h-44zM145 649l-67 2v49h123v-700h-56v649z" />
    <glyph glyph-name="Icircumflex" unicode="&#xce;" horiz-adv-x="448" 
d="M116 733l-38 39l148 141l142 -141l-38 -39l-105 104zM207 649l-67 2v49h123v-700h-56v649z" />
    <glyph glyph-name="Idieresis" unicode="&#xcf;" horiz-adv-x="380" 
d="M88 739q-10 10 -10 23q0 14 10 23.5t23 9.5q14 0 23.5 -9.5t9.5 -23.5q0 -13 -9.5 -23t-23.5 -10q-13 0 -23 10zM244 739q-10 10 -10 23q0 14 10 23.5t23 9.5q14 0 23.5 -9.5t9.5 -23.5q0 -13 -9.5 -23t-23.5 -10q-13 0 -23 10zM170 649l-67 2v49h123v-700h-56v649z" />
    <glyph glyph-name="Eth" unicode="&#xd0;" horiz-adv-x="638" 
d="M127 483h-49v55h49v163h188q93 0 150.5 -44t74.5 -119h65v-55h-58v-283q0 -200 -212 -200h-208v483zM183 538h301q-16 56 -61.5 84t-97.5 28h-142v-112zM183 483v-433h136q73 0 122.5 28.5t49.5 111.5v293h-308z" />
    <glyph glyph-name="Ntilde" unicode="&#xd1;" horiz-adv-x="650" 
d="M401 729q-17 0 -32 5t-42 16q-44 21 -71 21q-37 0 -73 -37l-25 39q46 52 95 52q18 0 34 -5t42 -16q26 -10 40 -14.5t29 -4.5q37 0 69 35l25 -39q-43 -52 -91 -52zM134 597v-597h-56v700h56l380 -597v597h56v-700h-56z" />
    <glyph glyph-name="Ograve" unicode="&#xd2;" horiz-adv-x="549" 
d="M177 824q-5 8 -5 16q0 13 8.5 23t24.5 10q24 0 34 -23l51 -118h-44zM421.5 36.5q-61.5 -47.5 -147.5 -47.5q-54 0 -102 19.5t-78.5 63.5t-30.5 113v322q0 103 56.5 156t155.5 53t153.5 -56t54.5 -154v-321q0 -101 -61.5 -148.5zM385.5 626q-42.5 37 -112.5 37t-112 -37
t-42 -110v-330q0 -71 43.5 -107.5t110.5 -36.5q68 0 111.5 35.5t43.5 109.5v329q0 73 -42.5 110z" />
    <glyph glyph-name="Oacute" unicode="&#xd3;" horiz-adv-x="549" 
d="M308 848q10 23 34 23q15 0 24 -10t9 -22q0 -9 -5 -17l-69 -92h-44zM421.5 36.5q-61.5 -47.5 -147.5 -47.5q-54 0 -102 19.5t-78.5 63.5t-30.5 113v322q0 103 56.5 156t155.5 53t153.5 -56t54.5 -154v-321q0 -101 -61.5 -148.5zM385.5 626q-42.5 37 -112.5 37t-112 -37
t-42 -110v-330q0 -71 43.5 -107.5t110.5 -36.5q68 0 111.5 35.5t43.5 109.5v329q0 73 -42.5 110z" />
    <glyph glyph-name="Ocircumflex" unicode="&#xd4;" horiz-adv-x="549" 
d="M170 733l-38 39l148 141l142 -141l-38 -39l-105 104zM421.5 36.5q-61.5 -47.5 -147.5 -47.5q-54 0 -102 19.5t-78.5 63.5t-30.5 113v322q0 103 56.5 156t155.5 53t153.5 -56t54.5 -154v-321q0 -101 -61.5 -148.5zM385.5 626q-42.5 37 -112.5 37t-112 -37t-42 -110v-330
q0 -71 43.5 -107.5t110.5 -36.5q68 0 111.5 35.5t43.5 109.5v329q0 73 -42.5 110z" />
    <glyph glyph-name="Otilde" unicode="&#xd5;" horiz-adv-x="549" 
d="M354 729q-17 0 -32 5t-42 16q-44 21 -71 21q-37 0 -73 -37l-25 39q46 52 95 52q18 0 34 -5t42 -16q26 -10 40 -14.5t29 -4.5q37 0 69 35l25 -39q-43 -52 -91 -52zM421.5 36.5q-61.5 -47.5 -147.5 -47.5q-54 0 -102 19.5t-78.5 63.5t-30.5 113v322q0 103 56.5 156
t155.5 53t153.5 -56t54.5 -154v-321q0 -101 -61.5 -148.5zM385.5 626q-42.5 37 -112.5 37t-112 -37t-42 -110v-330q0 -71 43.5 -107.5t110.5 -36.5q68 0 111.5 35.5t43.5 109.5v329q0 73 -42.5 110z" />
    <glyph glyph-name="Odieresis" unicode="&#xd6;" horiz-adv-x="549" 
d="M170 741q-10 10 -10 23q0 14 10 23.5t23 9.5q14 0 23.5 -9.5t9.5 -23.5q0 -13 -9.5 -23t-23.5 -10q-13 0 -23 10zM326 741q-10 10 -10 23q0 14 10 23.5t23 9.5q14 0 23.5 -9.5t9.5 -23.5q0 -13 -9.5 -23t-23.5 -10q-13 0 -23 10zM421.5 36.5q-61.5 -47.5 -147.5 -47.5
q-54 0 -102 19.5t-78.5 63.5t-30.5 113v322q0 103 56.5 156t155.5 53t153.5 -56t54.5 -154v-321q0 -101 -61.5 -148.5zM385.5 626q-42.5 37 -112.5 37t-112 -37t-42 -110v-330q0 -71 43.5 -107.5t110.5 -36.5q68 0 111.5 35.5t43.5 109.5v329q0 73 -42.5 110z" />
    <glyph glyph-name="multiply" unicode="&#xd7;" horiz-adv-x="395" 
d="M220 290l-100 -122l-42 37l106 128l-106 129l41 35l101 -122l101 122l41 -35l-107 -129l107 -128l-42 -37z" />
    <glyph glyph-name="Oslash" unicode="&#xd8;" horiz-adv-x="531" 
d="M150 29q-72 53 -72 156v322q0 103 56.5 156t155.5 53q50 0 93 -16l41 117h57l-50 -146q67 -55 67 -165v-321q0 -101 -61.5 -148.5t-147.5 -47.5q-49 0 -88 14l-40 -117h-61zM288 663q-70 0 -112 -37t-42 -110v-330q0 -63 35 -100l196 562q-33 15 -77 15zM411 614
l-193 -560q31 -12 70 -12q68 0 111.5 35.5t43.5 109.5v329q0 61 -32 98z" />
    <glyph glyph-name="Ugrave" unicode="&#xd9;" horiz-adv-x="566" 
d="M193 824q-5 8 -5 16q0 13 8.5 23t24.5 10q24 0 34 -23l51 -118h-44zM495 701v-515q0 -101 -61.5 -147t-148.5 -46t-149 46t-62 147v515h56v-523q0 -61 44.5 -98t109.5 -37t110 37t45 98v523h56z" />
    <glyph glyph-name="Uacute" unicode="&#xda;" horiz-adv-x="566" 
d="M313 849q10 23 34 23q15 0 24 -10t9 -22q0 -9 -5 -17l-69 -92h-44zM495 701v-515q0 -101 -61.5 -147t-148.5 -46t-149 46t-62 147v515h56v-523q0 -61 44.5 -98t109.5 -37t110 37t45 98v523h56z" />
    <glyph glyph-name="Ucircumflex" unicode="&#xdb;" horiz-adv-x="566" 
d="M179 733l-38 39l148 141l142 -141l-38 -39l-105 104zM495 701v-515q0 -101 -61.5 -147t-148.5 -46t-149 46t-62 147v515h56v-523q0 -61 44.5 -98t109.5 -37t110 37t45 98v523h56z" />
    <glyph glyph-name="Udieresis" unicode="&#xdc;" horiz-adv-x="566" 
d="M182 741q-10 10 -10 23q0 14 10 23.5t23 9.5q14 0 23.5 -9.5t9.5 -23.5q0 -13 -9.5 -23t-23.5 -10q-13 0 -23 10zM338 741q-10 10 -10 23q0 14 10 23.5t23 9.5q14 0 23.5 -9.5t9.5 -23.5q0 -13 -9.5 -23t-23.5 -10q-13 0 -23 10zM495 701v-515q0 -101 -61.5 -147
t-148.5 -46t-149 46t-62 147v515h56v-523q0 -61 44.5 -98t109.5 -37t110 37t45 98v523h56z" />
    <glyph glyph-name="Yacute" unicode="&#xdd;" horiz-adv-x="560" 
d="M313 849q10 23 34 23q15 0 24 -10t9 -22q0 -9 -5 -17l-69 -92h-44zM429.5 66.5q17.5 26.5 17.5 85.5v142q-27 -24 -72 -36.5t-86 -12.5q-106 0 -167.5 52.5t-61.5 155.5v247h56v-257q0 -70 48 -106.5t125 -36.5q59 0 103 25t55 75v300h57v-544q0 -73 -27.5 -114.5
t-77.5 -48.5l-13 37q26 10 43.5 36.5z" />
    <glyph glyph-name="Thorn" unicode="&#xde;" horiz-adv-x="488" 
d="M78 700h56v-245q26 27 61 40.5t70 13.5q93 0 141.5 -54t48.5 -140q0 -94 -51.5 -146.5t-134.5 -52.5q-37 0 -76 18.5t-59 50.5v-185h-56v700zM171 208.5q37 -38.5 98 -38.5q57 0 93.5 36t36.5 113q0 73 -38.5 106t-91.5 33q-54 0 -93 -32.5t-42 -101.5q0 -77 37 -115.5z
" />
    <glyph glyph-name="germandbls" unicode="&#xdf;" horiz-adv-x="511" 
d="M250.5 54.5q29.5 -10.5 58.5 -10.5q33 0 59.5 13t38.5 37q12 26 12 49q0 52 -48 100q-17 17 -55 51q-53 45 -79.5 78t-26.5 73q0 29 18 62q28 0 43.5 18t15.5 44q0 30 -19 54t-50 24q-83 0 -83 -106v-541h-57v537q0 77 34.5 120.5t105.5 43.5q39 0 67 -19.5t42.5 -50
t14.5 -64.5q0 -27 -9 -50.5t-27 -39.5h-30q-9 -15 -9 -30q0 -25 20 -48.5t63 -61.5q42 -36 63 -58q64 -68 64 -139q0 -33 -14 -67q-18 -41 -58 -62t-90 -21q-40 0 -78.5 12.5t-64.5 34.5l29 48q20 -20 49.5 -30.5z" />
    <glyph glyph-name="agrave" unicode="&#xe0;" horiz-adv-x="496" 
d="M177 632q-5 8 -5 16q0 13 8.5 23t24.5 10q24 0 34 -23l51 -118h-44zM307 -11q-105 0 -167 39t-62 141v83q0 99 69 133q33 17 84 17q47 0 95 -15.5t81 -40.5q0 55 -32 87.5t-123 32.5l3 43q96 0 141.5 -30.5t56 -72.5t10.5 -108v-298q-108 -11 -156 -11zM319.5 336
q-46.5 14 -85.5 14q-101 0 -101 -101v-87q0 -65 45 -94.5t128 -29.5q43 0 101 8v257q-41 19 -87.5 33z" />
    <glyph glyph-name="aacute" unicode="&#xe1;" horiz-adv-x="496" 
d="M309 656q10 23 34 23q15 0 24 -10t9 -22q0 -9 -5 -17l-69 -92h-44zM307 -11q-105 0 -167 39t-62 141v83q0 99 69 133q33 17 84 17q47 0 95 -15.5t81 -40.5q0 55 -32 87.5t-123 32.5l3 43q96 0 141.5 -30.5t56 -72.5t10.5 -108v-298q-108 -11 -156 -11zM319.5 336
q-46.5 14 -85.5 14q-101 0 -101 -101v-87q0 -65 45 -94.5t128 -29.5q43 0 101 8v257q-41 19 -87.5 33z" />
    <glyph glyph-name="acircumflex" unicode="&#xe2;" horiz-adv-x="496" 
d="M172 540l-38 39l148 141l142 -141l-38 -39l-105 104zM307 -11q-105 0 -167 39t-62 141v83q0 99 69 133q33 17 84 17q47 0 95 -15.5t81 -40.5q0 55 -32 87.5t-123 32.5l3 43q96 0 141.5 -30.5t56 -72.5t10.5 -108v-298q-108 -11 -156 -11zM319.5 336q-46.5 14 -85.5 14
q-101 0 -101 -101v-87q0 -65 45 -94.5t128 -29.5q43 0 101 8v257q-41 19 -87.5 33z" />
    <glyph glyph-name="atilde" unicode="&#xe3;" horiz-adv-x="496" 
d="M346 541q-17 0 -32 5t-42 16q-44 21 -71 21q-37 0 -73 -37l-25 39q45 52 95 52q18 0 34 -5t42 -16q26 -10 40 -14.5t29 -4.5q37 0 69 35l25 -39q-43 -52 -91 -52zM307 -11q-105 0 -167 39t-62 141v83q0 99 69 133q33 17 84 17q47 0 95 -15.5t81 -40.5q0 55 -32 87.5
t-123 32.5l3 43q96 0 141.5 -30.5t56 -72.5t10.5 -108v-298q-108 -11 -156 -11zM319.5 336q-46.5 14 -85.5 14q-101 0 -101 -101v-87q0 -65 45 -94.5t128 -29.5q43 0 101 8v257q-41 19 -87.5 33z" />
    <glyph glyph-name="adieresis" unicode="&#xe4;" horiz-adv-x="496" 
d="M180 549q-10 10 -10 23q0 14 10 23.5t23 9.5q14 0 23.5 -9.5t9.5 -23.5q0 -13 -9.5 -23t-23.5 -10q-13 0 -23 10zM336 549q-10 10 -10 23q0 14 10 23.5t23 9.5q14 0 23.5 -9.5t9.5 -23.5q0 -13 -9.5 -23t-23.5 -10q-13 0 -23 10zM307 -11q-105 0 -167 39t-62 141v83
q0 99 69 133q33 17 84 17q47 0 95 -15.5t81 -40.5q0 55 -32 87.5t-123 32.5l3 43q96 0 141.5 -30.5t56 -72.5t10.5 -108v-298q-108 -11 -156 -11zM319.5 336q-46.5 14 -85.5 14q-101 0 -101 -101v-87q0 -65 45 -94.5t128 -29.5q43 0 101 8v257q-41 19 -87.5 33z" />
    <glyph glyph-name="aring" unicode="&#xe5;" horiz-adv-x="496" 
d="M307 -11q-105 0 -167 39t-62 141v83q0 99 69 133q33 17 84 17q47 0 95 -15.5t81 -40.5q0 53 -30 85.5t-116 34.5h-9q-44 4 -74 36.5t-30 76.5q0 47 33.5 80t79.5 33q47 0 80 -33t33 -80q0 -46 -33 -79q57 -13 83.5 -44t32.5 -67t6 -91v-298q-108 -11 -156 -11z
M309.5 627.5q-19.5 19.5 -48.5 19.5q-28 0 -48 -19.5t-20 -48.5q0 -28 20 -48t48 -20q29 0 48.5 20t19.5 48q0 29 -19.5 48.5zM319.5 336q-46.5 14 -85.5 14q-101 0 -101 -101v-87q0 -65 45 -94.5t128 -29.5q43 0 101 8v257q-41 19 -87.5 33z" />
    <glyph glyph-name="ae" unicode="&#xe6;" horiz-adv-x="801" 
d="M661.5 0.5q-45.5 -12.5 -90.5 -12.5q-66 0 -108 27v-15q-108 -11 -156 -11q-105 0 -167 39t-62 141v83q0 99 69 133q33 17 84 17q47 0 95 -15.5t81 -40.5q0 55 -32 87.5t-123 32.5l3 43q136 0 181 -69q24 34 64 52t92 18q83 0 129.5 -44.5t46.5 -123.5v-130l-304 -17v-61
q0 -48 31 -72t81 -24q70 0 145 40l22 -43q-36 -22 -81.5 -34.5zM673 436.5q-39 25.5 -82 25.5q-55 0 -91 -30t-36 -94v-88l248 12v87q0 62 -39 87.5zM319.5 336q-46.5 14 -85.5 14q-101 0 -101 -101v-87q0 -65 45 -94.5t128 -29.5q43 0 101 8v257q-41 19 -87.5 33z" />
    <glyph glyph-name="ccedilla" unicode="&#xe7;" horiz-adv-x="383" 
d="M237 -11l-22 1l-33 -43q9 6 36 6q34 0 57.5 -19.5t23.5 -54.5q0 -48 -37 -68.5t-87 -20.5q-40 0 -92 19l24 53q25 -17 41 -21t37 -4q24 0 43 10.5t19 31.5q0 16 -11 26.5t-31 10.5q-14 0 -35 -8l-34 -14l-17 28l57 73q-18 4 -28 7q-59 20 -85.5 61.5t-26.5 116.5v128
q0 99 52 150.5t134 51.5q65 0 134 -32l-16 -41q-57 23 -110 23q-62 0 -100 -35.5t-38 -110.5v-145q0 -69 41.5 -100t110.5 -31q45 0 102 13l12 -45q-68 -17 -121 -17z" />
    <glyph glyph-name="egrave" unicode="&#xe8;" horiz-adv-x="471" 
d="M169 632q-5 8 -5 16q0 13 8.5 23t24.5 10q24 0 34 -23l51 -118h-44zM331 0q-46 -12 -92 -12q-74 0 -117.5 36.5t-43.5 109.5v205q0 81 50.5 126t133.5 45t129.5 -44.5t46.5 -123.5v-130l-304 -17v-61q0 -48 31 -72t81 -24q70 0 145 40l22 -43q-36 -23 -82 -35zM343 436.5
q-39 25.5 -82 25.5q-55 0 -91 -30t-36 -94v-88l248 12v87q0 62 -39 87.5z" />
    <glyph glyph-name="eacute" unicode="&#xe9;" horiz-adv-x="471" 
d="M291 656q10 23 34 23q15 0 24 -10t9 -22q0 -9 -5 -17l-69 -92h-44zM331 0q-46 -12 -92 -12q-74 0 -117.5 36.5t-43.5 109.5v205q0 81 50.5 126t133.5 45t129.5 -44.5t46.5 -123.5v-130l-304 -17v-61q0 -48 31 -72t81 -24q70 0 145 40l22 -43q-36 -23 -82 -35zM343 436.5
q-39 25.5 -82 25.5q-55 0 -91 -30t-36 -94v-88l248 12v87q0 62 -39 87.5z" />
    <glyph glyph-name="ecircumflex" unicode="&#xea;" horiz-adv-x="471" 
d="M167 540l-38 39l148 141l142 -141l-38 -39l-105 104zM331 0q-46 -12 -92 -12q-74 0 -117.5 36.5t-43.5 109.5v205q0 81 50.5 126t133.5 45t129.5 -44.5t46.5 -123.5v-130l-304 -17v-61q0 -48 31 -72t81 -24q70 0 145 40l22 -43q-36 -23 -82 -35zM343 436.5
q-39 25.5 -82 25.5q-55 0 -91 -30t-36 -94v-88l248 12v87q0 62 -39 87.5z" />
    <glyph glyph-name="edieresis" unicode="&#xeb;" horiz-adv-x="537" 
d="M115 549q-10 10 -10 23q0 14 10 23.5t23 9.5q14 0 23.5 -9.5t9.5 -23.5q0 -13 -9.5 -23t-23.5 -10q-13 0 -23 10zM271 549q-10 10 -10 23q0 14 10 23.5t23 9.5q14 0 23.5 -9.5t9.5 -23.5q0 -13 -9.5 -23t-23.5 -10q-13 0 -23 10zM288 0q-46 -12 -92 -12
q-74 0 -117.5 36.5t-43.5 109.5v205q0 81 50.5 126t133.5 45t129.5 -44.5t46.5 -123.5v-130l-304 -17v-61q0 -48 31 -72t81 -24q70 0 145 40l22 -43q-36 -23 -82 -35zM300 436.5q-39 25.5 -82 25.5q-55 0 -91 -30t-36 -94v-88l248 12v87q0 62 -39 87.5z" />
    <glyph glyph-name="igrave" unicode="&#xec;" horiz-adv-x="245" 
d="M83 632q-5 8 -5 16q0 13 8.5 23t24.5 10q24 0 34 -23l51 -118h-44zM156 501h56v-501h-56v501z" />
    <glyph glyph-name="iacute" unicode="&#xed;" horiz-adv-x="237" 
d="M137 656q10 23 34 23q15 0 24 -10t9 -22q0 -9 -5 -17l-69 -92h-44zM78 501h56v-501h-56v501z" />
    <glyph glyph-name="icircumflex" unicode="&#xee;" horiz-adv-x="223" 
d="M2 540l-38 39l148 141l142 -141l-38 -39l-105 104zM83 501h56v-501h-56v501z" />
    <glyph glyph-name="idieresis" unicode="&#xef;" horiz-adv-x="333" 
d="M88 549q-10 10 -10 23q0 14 10 23.5t23 9.5q14 0 23.5 -9.5t9.5 -23.5q0 -13 -9.5 -23t-23.5 -10q-13 0 -23 10zM244 549q-10 10 -10 23q0 14 10 23.5t23 9.5q14 0 23.5 -9.5t9.5 -23.5q0 -13 -9.5 -23t-23.5 -10q-13 0 -23 10zM162 501h56v-501h-56v501z" />
    <glyph glyph-name="ntilde" unicode="&#xf1;" horiz-adv-x="480" 
d="M335 541q-17 0 -32 5t-42 16q-44 21 -71 21q-37 0 -73 -37l-25 39q45 52 95 52q18 0 34 -5t42 -16q26 -10 40 -14.5t29 -4.5q37 0 69 35l25 -39q-43 -52 -91 -52zM392 343q0 61 -35.5 88.5t-91.5 27.5q-34 0 -69 -9.5t-62 -24.5v-425h-56v501h56l-4 -34q24 21 61 31.5
t77 10.5q55 0 94 -18q40 -18 62.5 -54t22.5 -91v-346h-55v343z" />
    <glyph glyph-name="ograve" unicode="&#xf2;" 
d="M168 632q-5 8 -5 16q0 13 8.5 23t24.5 10q24 0 34 -23l51 -118h-44zM405 45q-46 -55 -139 -55t-140.5 55.5t-47.5 138.5v132q0 95 48.5 145.5t139.5 50.5q87 0 136 -52.5t49 -143.5v-132q0 -84 -46 -139zM360.5 426q-34.5 35 -94.5 35q-62 0 -97 -35t-35 -110v-142
q0 -60 35.5 -97t96.5 -37q62 0 95.5 36.5t33.5 97.5v142q0 75 -34.5 110z" />
    <glyph glyph-name="oacute" unicode="&#xf3;" 
d="M290 656q10 23 34 23q15 0 24 -10t9 -22q0 -9 -5 -17l-69 -92h-44zM405 45q-46 -55 -139 -55t-140.5 55.5t-47.5 138.5v132q0 95 48.5 145.5t139.5 50.5q87 0 136 -52.5t49 -143.5v-132q0 -84 -46 -139zM360.5 426q-34.5 35 -94.5 35q-62 0 -97 -35t-35 -110v-142
q0 -60 35.5 -97t96.5 -37q62 0 95.5 36.5t33.5 97.5v142q0 75 -34.5 110z" />
    <glyph glyph-name="ocircumflex" unicode="&#xf4;" 
d="M161 540l-38 39l148 141l142 -141l-38 -39l-105 104zM405 45q-46 -55 -139 -55t-140.5 55.5t-47.5 138.5v132q0 95 48.5 145.5t139.5 50.5q87 0 136 -52.5t49 -143.5v-132q0 -84 -46 -139zM360.5 426q-34.5 35 -94.5 35q-62 0 -97 -35t-35 -110v-142q0 -60 35.5 -97
t96.5 -37q62 0 95.5 36.5t33.5 97.5v142q0 75 -34.5 110z" />
    <glyph glyph-name="otilde" unicode="&#xf5;" 
d="M344 541q-17 0 -32 5t-42 16q-44 21 -71 21q-37 0 -73 -37l-25 39q46 52 95 52q18 0 34 -5t42 -16q26 -10 40 -14.5t29 -4.5q37 0 69 35l25 -39q-43 -52 -91 -52zM405 45q-46 -55 -139 -55t-140.5 55.5t-47.5 138.5v132q0 95 48.5 145.5t139.5 50.5q87 0 136 -52.5
t49 -143.5v-132q0 -84 -46 -139zM360.5 426q-34.5 35 -94.5 35q-62 0 -97 -35t-35 -110v-142q0 -60 35.5 -97t96.5 -37q62 0 95.5 36.5t33.5 97.5v142q0 75 -34.5 110z" />
    <glyph glyph-name="odieresis" unicode="&#xf6;" 
d="M169 549q-10 10 -10 23q0 14 10 23.5t23 9.5q14 0 23.5 -9.5t9.5 -23.5q0 -13 -9.5 -23t-23.5 -10q-13 0 -23 10zM325 549q-10 10 -10 23q0 14 10 23.5t23 9.5q14 0 23.5 -9.5t9.5 -23.5q0 -13 -9.5 -23t-23.5 -10q-13 0 -23 10zM405 45q-46 -55 -139 -55t-140.5 55.5
t-47.5 138.5v132q0 95 48.5 145.5t139.5 50.5q87 0 136 -52.5t49 -143.5v-132q0 -84 -46 -139zM360.5 426q-34.5 35 -94.5 35q-62 0 -97 -35t-35 -110v-142q0 -60 35.5 -97t96.5 -37q62 0 95.5 36.5t33.5 97.5v142q0 75 -34.5 110z" />
    <glyph glyph-name="divide" unicode="&#xf7;" horiz-adv-x="431" 
d="M217 489q-10 10 -10 23q0 14 10 23.5t23 9.5q14 0 23.5 -9.5t9.5 -23.5q0 -13 -9.5 -23t-23.5 -10q-13 0 -23 10zM78 413h320v-55h-320v55zM217 232q-10 10 -10 23q0 14 10 23.5t23 9.5q14 0 23.5 -9.5t9.5 -23.5q0 -13 -9.5 -23t-23.5 -10q-13 0 -23 10z" />
    <glyph glyph-name="oslash" unicode="&#xf8;" 
d="M140 31q-31 27 -46.5 66.5t-15.5 86.5v132q0 95 48.5 145.5t139.5 50.5q39 0 75 -13l38 89h59l-50 -116q30 -26 46.5 -66t16.5 -90v-132q0 -84 -46 -139t-139 -55q-44 0 -80 14l-31 -71h-57zM266 461q-62 0 -97 -35t-35 -110v-142q0 -55 29 -90l157 368q-24 9 -54 9z
M365 420l-159 -369q27 -11 60 -11q62 0 95.5 36.5t33.5 97.5v142q0 68 -30 104z" />
    <glyph glyph-name="ugrave" unicode="&#xf9;" 
d="M175 632q-5 8 -5 16q0 13 8.5 23t24.5 10q24 0 34 -23l51 -118h-44zM400 51q-24 -30 -60.5 -46t-73.5 -16q-188 0 -188 183v329h56v-336q0 -64 35.5 -95t96.5 -31q60 0 94.5 30.5t34.5 95.5v336h56v-501h-55z" />
    <glyph glyph-name="uacute" unicode="&#xfa;" 
d="M290 656q10 23 34 23q15 0 24 -10t9 -22q0 -9 -5 -17l-69 -92h-44zM400 51q-24 -30 -60.5 -46t-73.5 -16q-188 0 -188 183v329h56v-336q0 -64 35.5 -95t96.5 -31q60 0 94.5 30.5t34.5 95.5v336h56v-501h-55z" />
    <glyph glyph-name="ucircumflex" unicode="&#xfb;" 
d="M159 540l-38 39l148 141l142 -141l-38 -39l-105 104zM400 51q-24 -30 -60.5 -46t-73.5 -16q-188 0 -188 183v329h56v-336q0 -64 35.5 -95t96.5 -31q60 0 94.5 30.5t34.5 95.5v336h56v-501h-55z" />
    <glyph glyph-name="udieresis" unicode="&#xfc;" 
d="M164 549q-10 10 -10 23q0 14 10 23.5t23 9.5q14 0 23.5 -9.5t9.5 -23.5q0 -13 -9.5 -23t-23.5 -10q-13 0 -23 10zM320 549q-10 10 -10 23q0 14 10 23.5t23 9.5q14 0 23.5 -9.5t9.5 -23.5q0 -13 -9.5 -23t-23.5 -10q-13 0 -23 10zM400 51q-24 -30 -60.5 -46t-73.5 -16
q-188 0 -188 183v329h56v-336q0 -64 35.5 -95t96.5 -31q60 0 94.5 30.5t34.5 95.5v336h56v-501h-55z" />
    <glyph glyph-name="yacute" unicode="&#xfd;" horiz-adv-x="520" 
d="M287 656q10 23 34 23q15 0 24 -10t9 -22q0 -9 -5 -17l-69 -92h-44zM400 -63v112q-19 -32 -57 -46.5t-82 -14.5q-88 0 -135.5 47.5t-47.5 140.5v325h54v-335q0 -64 35 -95.5t94 -31.5q62 0 100 31t38 96v197q0 48 3 71.5t18.5 44t51.5 31.5l15 -38q-34 -15 -34 -70v-463
q0 -61 -24 -96t-81 -53l-15 43q67 25 67 104z" />
    <glyph glyph-name="thorn" unicode="&#xfe;" horiz-adv-x="488" 
d="M78 588h56v-133q26 27 61 40.5t70 13.5q93 0 141.5 -54t48.5 -140q0 -94 -51.5 -146.5t-134.5 -52.5q-37 0 -76 18.5t-59 50.5v-185h-56v588zM171 208.5q37 -38.5 98 -38.5q57 0 93.5 36t36.5 113q0 73 -38.5 106t-91.5 33q-54 0 -93 -32.5t-42 -101.5q0 -77 37 -115.5z
" />
    <glyph glyph-name="ydieresis" unicode="&#xff;" horiz-adv-x="520" 
d="M170 549q-10 10 -10 23q0 14 10 23.5t23 9.5q14 0 23.5 -9.5t9.5 -23.5q0 -13 -9.5 -23t-23.5 -10q-13 0 -23 10zM326 549q-10 10 -10 23q0 14 10 23.5t23 9.5q14 0 23.5 -9.5t9.5 -23.5q0 -13 -9.5 -23t-23.5 -10q-13 0 -23 10zM400 -63v112q-19 -32 -57 -46.5
t-82 -14.5q-88 0 -135.5 47.5t-47.5 140.5v325h54v-335q0 -64 35 -95.5t94 -31.5q62 0 100 31t38 96v197q0 48 3 71.5t18.5 44t51.5 31.5l15 -38q-34 -15 -34 -70v-463q0 -61 -24 -96t-81 -53l-15 43q67 25 67 104z" />
    <glyph glyph-name="Amacron" unicode="&#x100;" horiz-adv-x="527" 
d="M151 788h217v-58h-217v58zM377 245h-228l-78 -245h-59l224 700h53l228 -700h-60zM165 300h197l-100 313z" />
    <glyph glyph-name="amacron" unicode="&#x101;" horiz-adv-x="496" 
d="M169 596h217v-58h-217v58zM307 -11q-105 0 -167 39t-62 141v83q0 99 69 133q33 17 84 17q47 0 95 -15.5t81 -40.5q0 55 -32 87.5t-123 32.5l3 43q96 0 141.5 -30.5t56 -72.5t10.5 -108v-298q-108 -11 -156 -11zM319.5 336q-46.5 14 -85.5 14q-101 0 -101 -101v-87
q0 -65 45 -94.5t128 -29.5q43 0 101 8v257q-41 19 -87.5 33z" />
    <glyph glyph-name="Abreve" unicode="&#x102;" horiz-adv-x="527" 
d="M345 763.5q-33 -33.5 -80 -33.5q-46 0 -79.5 33.5t-33.5 79.5v5h45v-5q0 -28 20 -48t48 -20q29 0 48.5 20t19.5 48v5h45v-5q0 -46 -33 -79.5zM377 245h-228l-78 -245h-59l224 700h53l228 -700h-60zM165 300h197l-100 313z" />
    <glyph glyph-name="abreve" unicode="&#x103;" horiz-adv-x="496" 
d="M389 571.5q-33 -33.5 -80 -33.5q-46 0 -79.5 33.5t-33.5 79.5v5h45v-5q0 -28 20 -48t48 -20q29 0 48.5 20t19.5 48v5h45v-5q0 -46 -33 -79.5zM307 -11q-105 0 -167 39t-62 141v83q0 99 69 133q33 17 84 17q47 0 95 -15.5t81 -40.5q0 55 -32 87.5t-123 32.5l3 43
q96 0 141.5 -30.5t56 -72.5t10.5 -108v-298q-108 -11 -156 -11zM319.5 336q-46.5 14 -85.5 14q-101 0 -101 -101v-87q0 -65 45 -94.5t128 -29.5q43 0 101 8v257q-41 19 -87.5 33z" />
    <glyph glyph-name="Aogonek" unicode="&#x104;" horiz-adv-x="650" 
d="M576 -202q-23 -11 -56 -11q-31 0 -61.5 17.5t-30.5 64.5q0 26 17 58t79 73h-1l-80 245h-228l-78 -245h-59l224 700h53l228 -700h-1q-56 -46 -80 -75.5t-24 -52.5q0 -17 10 -27.5t29 -10.5q22 0 35.5 9.5t27.5 31.5l37 -38q-18 -28 -41 -39zM231 300h197l-100 313z" />
    <glyph glyph-name="aogonek" unicode="&#x105;" horiz-adv-x="492" 
d="M415 -202q-23 -11 -56 -11q-31 0 -61.5 17.5t-30.5 64.5q0 25 15.5 55.5t70.5 69.5q-58 -4 -87 -4q-105 0 -167 38.5t-62 140.5v83q0 99 69 133q33 17 84 17q47 0 95 -15.5t81 -40.5q0 55 -32 87.5t-123 32.5l3 43q96 0 141.5 -30.5t56 -72.5t10.5 -108v-298h-1
q-56 -46 -80 -75.5t-24 -52.5q0 -17 10 -27.5t29 -10.5q22 0 35.5 9.5t27.5 31.5l37 -38q-18 -28 -41 -39zM278.5 336q-46.5 14 -85.5 14q-101 0 -101 -101v-87q0 -65 45 -94.5t128 -29.5q43 0 101 8v257q-41 19 -87.5 33z" />
    <glyph glyph-name="Cacute" unicode="&#x106;" horiz-adv-x="436" 
d="M285 852q10 23 34 23q15 0 24 -10t9 -22q0 -9 -5 -17l-69 -92h-44zM261 -10q-87 0 -141 46t-54 147v321q0 76 21.5 115t65.5 66q44 25 108 25q78 0 141 -33l-16 -38q-57 21 -108 21q-61 0 -108.5 -30t-47.5 -117v-328q0 -69 36 -106.5t108 -37.5q63 0 149 29l12 -47
q-89 -33 -166 -33z" />
    <glyph glyph-name="cacute" unicode="&#x107;" horiz-adv-x="433" 
d="M260 656q10 23 34 23q15 0 24 -10t9 -22q0 -9 -5 -17l-69 -92h-44zM280 -10q-54 0 -90 12q-59 20 -85.5 61.5t-26.5 116.5v128q0 99 52 150.5t134 51.5q65 0 134 -32l-16 -41q-57 23 -110 23q-62 0 -100 -35.5t-38 -110.5v-145q0 -69 41.5 -100t110.5 -31q45 0 102 13
l12 -45q-62 -16 -120 -16z" />
    <glyph glyph-name="Ccircumflex" unicode="&#x108;" horiz-adv-x="436" 
d="M169 733l-38 39l148 141l142 -141l-38 -39l-105 104zM261 -10q-87 0 -141 46t-54 147v321q0 76 21.5 115t65.5 66q44 25 108 25q78 0 141 -33l-16 -38q-57 21 -108 21q-61 0 -108.5 -30t-47.5 -117v-328q0 -69 36 -106.5t108 -37.5q63 0 149 29l12 -47q-89 -33 -166 -33z
" />
    <glyph glyph-name="ccircumflex" unicode="&#x109;" horiz-adv-x="434" 
d="M149 541l-38 39l148 141l142 -141l-38 -39l-105 104zM280 -10q-54 0 -90 12q-59 20 -85.5 61.5t-26.5 116.5v128q0 99 52 150.5t134 51.5q65 0 134 -32l-16 -41q-57 23 -110 23q-62 0 -100 -35.5t-38 -110.5v-145q0 -69 41.5 -100t110.5 -31q45 0 102 13l12 -45
q-62 -16 -120 -16z" />
    <glyph glyph-name="Cdotaccent" unicode="&#x10a;" horiz-adv-x="436" 
d="M242.5 740.5q-10.5 10.5 -10.5 23.5t10 23t24 10t23.5 -9.5t9.5 -23.5t-10 -24t-23 -10t-23.5 10.5zM261 -10q-87 0 -141 46t-54 147v321q0 76 21.5 115t65.5 66q44 25 108 25q78 0 141 -33l-16 -38q-57 21 -108 21q-61 0 -108.5 -30t-47.5 -117v-328q0 -69 36 -106.5
t108 -37.5q63 0 149 29l12 -47q-89 -33 -166 -33z" />
    <glyph glyph-name="cdotaccent" unicode="&#x10b;" horiz-adv-x="433" 
d="M241.5 548.5q-10.5 10.5 -10.5 23.5t10 23t24 10t23.5 -9.5t9.5 -23.5t-10 -24t-23 -10t-23.5 10.5zM280 -10q-54 0 -90 12q-59 20 -85.5 61.5t-26.5 116.5v128q0 99 52 150.5t134 51.5q65 0 134 -32l-16 -41q-57 23 -110 23q-62 0 -100 -35.5t-38 -110.5v-145
q0 -69 41.5 -100t110.5 -31q45 0 102 13l12 -45q-62 -16 -120 -16z" />
    <glyph glyph-name="Ccaron" unicode="&#x10c;" horiz-adv-x="436" 
d="M108 874l38 39l109 -104l105 104l38 -39l-142 -141zM261 -10q-87 0 -141 46t-54 147v321q0 76 21.5 115t65.5 66q44 25 108 25q78 0 141 -33l-16 -38q-57 21 -108 21q-61 0 -108.5 -30t-47.5 -117v-328q0 -69 36 -106.5t108 -37.5q63 0 149 29l12 -47q-89 -33 -166 -33z
" />
    <glyph glyph-name="ccaron" unicode="&#x10d;" horiz-adv-x="434" 
d="M111 684l38 39l109 -104l105 104l38 -39l-142 -141zM280 -10q-54 0 -90 12q-59 20 -85.5 61.5t-26.5 116.5v128q0 99 52 150.5t134 51.5q65 0 134 -32l-16 -41q-57 23 -110 23q-62 0 -100 -35.5t-38 -110.5v-145q0 -69 41.5 -100t110.5 -31q45 0 102 13l12 -45
q-62 -16 -120 -16z" />
    <glyph glyph-name="Dcaron" unicode="&#x10e;" horiz-adv-x="576" 
d="M126 875l38 39l109 -104l105 104l38 -39l-142 -141zM78 701h188q113 0 172.5 -62t59.5 -165v-274q0 -200 -212 -200h-208v701zM417.5 578.5q-24.5 37.5 -62.5 54.5t-79 17h-142v-600h136q73 0 122.5 28.5t49.5 111.5v294q0 57 -24.5 94.5z" />
    <glyph glyph-name="dcaron" unicode="&#x10f;" horiz-adv-x="610" 
d="M507 612q14 12 20.5 19.5t7.5 9.5l-10 3q-18 13 -18 36q1 12 10.5 21t22.5 9t24.5 -11.5t11.5 -25.5q1 -59 -64 -113l-40 28q21 12 35 24zM163 490q41 19 98 19q37 0 71.5 -9t58.5 -26v226h56v-700l-55 -5q-65 -7 -102 -7t-69.5 7t-64.5 23q-36 18 -57 53t-21 86v189
q0 105 85 144zM329 449.5q-35 9.5 -69 9.5q-56 0 -91.5 -27.5t-35.5 -88.5v-187q0 -117 161 -117q38 0 97 9v377q-27 15 -62 24.5z" />
    <glyph glyph-name="Dcroat" unicode="&#x110;" horiz-adv-x="576" 
d="M175 788h217v-58h-217v58zM78 701h188q113 0 172.5 -62t59.5 -165v-274q0 -200 -212 -200h-208v701zM417.5 578.5q-24.5 37.5 -62.5 54.5t-79 17h-142v-600h136q73 0 122.5 28.5t49.5 111.5v294q0 57 -24.5 94.5z" />
    <glyph glyph-name="dcroat" unicode="&#x111;" horiz-adv-x="542" 
d="M447 0l-55 -5q-65 -7 -102 -7t-69.5 7t-64.5 23q-36 18 -57 53t-21 86v189q0 105 85 144q41 19 98 19q37 0 71.5 -9t58.5 -26v88h-116v55h116v83h56v-83h62v-55h-62v-562zM329 449.5q-35 9.5 -69 9.5q-56 0 -91.5 -27.5t-35.5 -88.5v-187q0 -117 161 -117q38 0 97 9v377
q-27 15 -62 24.5z" />
    <glyph glyph-name="Emacron" unicode="&#x112;" horiz-adv-x="465" 
d="M135 788h217v-58h-217v58zM78 700h334v-52h-278v-235h191l-19 -55h-172v-308h276v-50h-332v700z" />
    <glyph glyph-name="emacron" unicode="&#x113;" horiz-adv-x="537" 
d="M109 596h217v-58h-217v58zM288 0q-46 -12 -92 -12q-74 0 -117.5 36.5t-43.5 109.5v205q0 81 50.5 126t133.5 45t129.5 -44.5t46.5 -123.5v-130l-304 -17v-61q0 -48 31 -72t81 -24q70 0 145 40l22 -43q-36 -23 -82 -35zM300 436.5q-39 25.5 -82 25.5q-55 0 -91 -30
t-36 -94v-88l248 12v87q0 62 -39 87.5z" />
    <glyph glyph-name="Edotaccent" unicode="&#x116;" horiz-adv-x="465" 
d="M232.5 740.5q-10.5 10.5 -10.5 23.5t10 23t24 10t23.5 -9.5t9.5 -23.5t-10 -24t-23 -10t-23.5 10.5zM78 700h334v-52h-278v-235h191l-19 -55h-172v-308h276v-50h-332v700z" />
    <glyph glyph-name="edotaccent" unicode="&#x117;" horiz-adv-x="471" 
d="M246.5 548.5q-10.5 10.5 -10.5 23.5t10 23t24 10t23.5 -9.5t9.5 -23.5t-10 -24t-23 -10t-23.5 10.5zM331 0q-46 -12 -92 -12q-74 0 -117.5 36.5t-43.5 109.5v205q0 81 50.5 126t133.5 45t129.5 -44.5t46.5 -123.5v-130l-304 -17v-61q0 -48 31 -72t81 -24q70 0 145 40
l22 -43q-36 -23 -82 -35zM343 436.5q-39 25.5 -82 25.5q-55 0 -91 -30t-36 -94v-88l248 12v87q0 62 -39 87.5z" />
    <glyph glyph-name="Eogonek" unicode="&#x118;" horiz-adv-x="497" 
d="M403 -202q-23 -11 -56 -11q-31 0 -61.5 17.5t-30.5 64.5q0 26 17 58t79 73h-273v700h334v-52h-278v-235h191l-19 -55h-172v-308h276v-50h-1q-56 -46 -80 -75.5t-24 -52.5q0 -17 10 -27.5t29 -10.5q22 0 35.5 9.5t27.5 31.5l37 -38q-18 -28 -41 -39z" />
    <glyph glyph-name="eogonek" unicode="&#x119;" horiz-adv-x="434" 
d="M266 -202q-23 -11 -56 -11q-31 0 -61.5 17.5t-30.5 64.5q0 24 14 53t64 66q-74 0 -117.5 36.5t-43.5 109.5v205q0 81 50.5 126t133.5 45t129.5 -44.5t46.5 -123.5v-130l-304 -17v-61q0 -48 31 -72t81 -24q70 0 145 40l22 -43q-48 -30 -105 -40q-53 -45 -75 -73t-22 -50
q0 -17 10 -27.5t29 -10.5q22 0 35.5 9.5t27.5 31.5l37 -38q-18 -28 -41 -39zM300 436.5q-39 25.5 -82 25.5q-55 0 -91 -30t-36 -94v-88l248 12v87q0 62 -39 87.5z" />
    <glyph glyph-name="Ecaron" unicode="&#x11a;" horiz-adv-x="465" 
d="M101 875l38 39l109 -104l105 104l38 -39l-142 -141zM78 700h334v-52h-278v-235h191l-19 -55h-172v-308h276v-50h-332v700z" />
    <glyph glyph-name="ecaron" unicode="&#x11b;" horiz-adv-x="471" 
d="M117 683l38 39l109 -104l105 104l38 -39l-142 -141zM331 0q-46 -12 -92 -12q-74 0 -117.5 36.5t-43.5 109.5v205q0 81 50.5 126t133.5 45t129.5 -44.5t46.5 -123.5v-130l-304 -17v-61q0 -48 31 -72t81 -24q70 0 145 40l22 -43q-36 -23 -82 -35zM343 436.5
q-39 25.5 -82 25.5q-55 0 -91 -30t-36 -94v-88l248 12v87q0 62 -39 87.5z" />
    <glyph glyph-name="Gcircumflex" unicode="&#x11c;" horiz-adv-x="537" 
d="M174 733l-38 39l148 141l142 -141l-38 -39l-105 104zM421 41q-52 -51 -145 -51q-56 0 -104 21t-77.5 66t-29.5 112v314q0 70 22.5 112.5t64.5 68.5q44 25 108 25q78 0 141 -33l-16 -38q-57 21 -108 21q-61 0 -108.5 -30t-47.5 -117v-325q0 -67 43.5 -105t110.5 -38
q68 0 108 39t40 103v59h-66l-19 55h138v-300h-41z" />
    <glyph glyph-name="gcircumflex" unicode="&#x11d;" horiz-adv-x="489" 
d="M204 541l-38 39l148 141l142 -141l-38 -39l-105 104zM399 -63v124q-42 -73 -135 -73q-88 0 -137 48t-49 140v149q0 88 51.5 136.5t138.5 48.5q93 0 135 -67l-4 58h56v-565q0 -60 -25 -94t-82 -52l-15 43q66 25 66 104zM359 428.5q-40 30.5 -95 30.5q-53 0 -91.5 -32.5
t-38.5 -106.5v-153q0 -63 35.5 -95t94.5 -32q56 0 95.5 34.5t39.5 98.5v163q0 62 -40 92.5z" />
    <glyph glyph-name="Gbreve" unicode="&#x11e;" horiz-adv-x="537" 
d="M356 761.5q-33 -33.5 -80 -33.5q-46 0 -79.5 33.5t-33.5 79.5v5h45v-5q0 -28 20 -48t48 -20q29 0 48.5 20t19.5 48v5h45v-5q0 -46 -33 -79.5zM421 41q-52 -51 -145 -51q-56 0 -104 21t-77.5 66t-29.5 112v314q0 70 22.5 112.5t64.5 68.5q44 25 108 25q78 0 141 -33
l-16 -38q-57 21 -108 21q-61 0 -108.5 -30t-47.5 -117v-325q0 -67 43.5 -105t110.5 -38q68 0 108 39t40 103v59h-66l-19 55h138v-300h-41z" />
    <glyph glyph-name="gbreve" unicode="&#x11f;" horiz-adv-x="488" 
d="M362 565.5q-33 -33.5 -80 -33.5q-46 0 -79.5 33.5t-33.5 79.5v5h45v-5q0 -28 20 -48t48 -20q29 0 48.5 20t19.5 48v5h45v-5q0 -46 -33 -79.5zM399 -63v124q-42 -73 -135 -73q-88 0 -137 48t-49 140v149q0 88 51.5 136.5t138.5 48.5q93 0 135 -67l-4 58h56v-565
q0 -60 -25 -94t-82 -52l-15 43q66 25 66 104zM359 428.5q-40 30.5 -95 30.5q-53 0 -91.5 -32.5t-38.5 -106.5v-153q0 -63 35.5 -95t94.5 -32q56 0 95.5 34.5t39.5 98.5v163q0 62 -40 92.5z" />
    <glyph glyph-name="Gdotaccent" unicode="&#x120;" horiz-adv-x="566" 
d="M249.5 739.5q-10.5 10.5 -10.5 23.5t10 23t24 10t23.5 -9.5t9.5 -23.5t-10 -24t-23 -10t-23.5 10.5zM421 41q-52 -51 -145 -51q-56 0 -104 21t-77.5 66t-29.5 112v314q0 70 22.5 112.5t64.5 68.5q44 25 108 25q78 0 141 -33l-16 -38q-57 21 -108 21q-61 0 -108.5 -30
t-47.5 -117v-325q0 -67 43.5 -105t110.5 -38q68 0 108 39t40 103v59h-66l-19 55h138v-300h-41z" />
    <glyph glyph-name="gdotaccent" unicode="&#x121;" horiz-adv-x="488" 
d="M256.5 547.5q-10.5 10.5 -10.5 23.5t10 23t24 10t23.5 -9.5t9.5 -23.5t-10 -24t-23 -10t-23.5 10.5zM399 -63v124q-42 -73 -135 -73q-88 0 -137 48t-49 140v149q0 88 51.5 136.5t138.5 48.5q93 0 135 -67l-4 58h56v-565q0 -60 -25 -94t-82 -52l-15 43q66 25 66 104z
M359 428.5q-40 30.5 -95 30.5q-53 0 -91.5 -32.5t-38.5 -106.5v-153q0 -63 35.5 -95t94.5 -32q56 0 95.5 34.5t39.5 98.5v163q0 62 -40 92.5z" />
    <glyph glyph-name="Gcommaaccent" unicode="&#x122;" horiz-adv-x="537" 
d="M421 41q-52 -51 -145 -51q-56 0 -104 21t-77.5 66t-29.5 112v314q0 70 22.5 112.5t64.5 68.5q44 25 108 25q78 0 141 -33l-16 -38q-57 21 -108 21q-61 0 -108.5 -30t-47.5 -117v-325q0 -67 43.5 -105t110.5 -38q68 0 108 39t40 103v59h-66l-19 55h138v-300h-41zM236 -132
q14 12 20.5 19.5t7.5 9.5l-10 3q-18 13 -18 36q1 12 10.5 21t22.5 9t24.5 -11.5t11.5 -25.5q1 -59 -64 -113l-40 28q21 12 35 24z" />
    <glyph glyph-name="gcommaaccent" unicode="&#x123;" horiz-adv-x="488" 
d="M298 571q-1 -12 -10.5 -21t-22.5 -9q-14 0 -25 12.5t-11 26.5q0 57 64 111l40 -28q-21 -12 -35 -24t-20.5 -19.5t-7.5 -9.5l10 -3q18 -13 18 -36zM399 -63v124q-42 -73 -135 -73q-88 0 -137 48t-49 140v149q0 88 51.5 136.5t138.5 48.5q93 0 135 -67l-4 58h56v-565
q0 -60 -25 -94t-82 -52l-15 43q66 25 66 104zM359 428.5q-40 30.5 -95 30.5q-53 0 -91.5 -32.5t-38.5 -106.5v-153q0 -63 35.5 -95t94.5 -32q56 0 95.5 34.5t39.5 98.5v163q0 62 -40 92.5z" />
    <glyph glyph-name="Hcircumflex" unicode="&#x124;" horiz-adv-x="588" 
d="M217 733l-38 39l148 141l142 -141l-38 -39l-105 104zM452 358h-318v-358h-56v700h56v-287h318v287h56v-700h-56v358z" />
    <glyph glyph-name="hcircumflex" unicode="&#x125;" horiz-adv-x="610" 
d="M102 733l-38 39l148 141l142 -141l-38 -39l-105 104zM495 343q0 61 -35.5 88.5t-91.5 27.5q-34 0 -69 -9.5t-62 -24.5v-425h-56v700h56v-226q25 17 60 26.5t73 9.5q52 0 95 -19q40 -18 62.5 -54t22.5 -91v-346h-55v343z" />
    <glyph glyph-name="Hbar" unicode="&#x126;" horiz-adv-x="685" 
d="M501 358h-318v-358h-56v483h-49v55h49v162h56v-162h318v162h56v-162h48v-55h-48v-483h-56v358zM183 483v-70h318v70h-318z" />
    <glyph glyph-name="hbar" unicode="&#x127;" horiz-adv-x="542" 
d="M454 343q0 61 -35.5 88.5t-91.5 27.5q-34 0 -69 -9.5t-62 -24.5v-425h-56v562h-62v55h62v83h56v-83h116v-55h-116v-88q25 17 60 26.5t73 9.5q52 0 95 -19q40 -18 62.5 -54t22.5 -91v-346h-55v343z" />
    <glyph glyph-name="Itilde" unicode="&#x128;" horiz-adv-x="492" 
d="M321 730q-17 0 -32 5t-42 16q-44 21 -71 21q-37 0 -73 -37l-25 39q45 52 95 52q18 0 34 -5t42 -16q26 -10 40 -14.5t29 -4.5q37 0 69 35l25 -39q-43 -52 -91 -52zM230 649l-67 2v49h123v-700h-56v649z" />
    <glyph glyph-name="itilde" unicode="&#x129;" horiz-adv-x="445" 
d="M321 531q-17 0 -32 5t-42 16q-44 21 -71 21q-37 0 -73 -37l-25 39q45 52 95 52q18 0 34 -5t42 -16q26 -10 40 -14.5t29 -4.5q37 0 69 35l25 -39q-43 -52 -91 -52zM211 501h56v-501h-56v501z" />
    <glyph glyph-name="Imacron" unicode="&#x12a;" horiz-adv-x="374" 
d="M78 788h216v-58h-216v58zM189 649l-67 2v49h123v-700h-56v649z" />
    <glyph glyph-name="imacron" unicode="&#x12b;" horiz-adv-x="328" 
d="M78 596h217v-58h-217v58zM162 501h56v-501h-56v501z" />
    <glyph glyph-name="Iogonek" unicode="&#x12e;" horiz-adv-x="347" 
d="M226 -202q-23 -11 -56 -11q-31 0 -61.5 17.5t-30.5 64.5q0 26 17 58t79 73h2v649l-67 2v49h123v-700q-56 -46 -80 -75.5t-24 -52.5q0 -17 10 -27.5t29 -10.5q22 0 35.5 9.5t27.5 31.5l37 -38q-18 -28 -41 -39z" />
    <glyph glyph-name="iogonek" unicode="&#x12f;" horiz-adv-x="245" 
d="M97.5 653.5q-10.5 10.5 -10.5 23.5t10 23t24 10t23.5 -9.5t9.5 -23.5t-10 -24t-23 -10t-23.5 10.5zM141 -202q-23 -11 -56 -11q-31 0 -61.5 17.5t-30.5 64.5q0 26 17 58t79 73h3v501h56v-501h-1q-56 -46 -80 -75.5t-24 -52.5q0 -17 10 -27.5t29 -10.5q22 0 35.5 9.5
t27.5 31.5l37 -38q-18 -28 -41 -39z" />
    <glyph glyph-name="Idotaccent" unicode="&#x130;" horiz-adv-x="287" 
d="M150.5 740.5q-10.5 10.5 -10.5 23.5t10 23t24 10t23.5 -9.5t9.5 -23.5t-10 -24t-23 -10t-23.5 10.5zM145 649l-67 2v49h123v-700h-56v649z" />
    <glyph glyph-name="dotlessi" unicode="&#x131;" horiz-adv-x="130" 
d="M36 501h56v-501h-56v501z" />
    <glyph glyph-name="Jcircumflex" unicode="&#x134;" horiz-adv-x="265" 
d="M189 761.5q-33 -33.5 -80 -33.5q-46 0 -79.5 33.5t-33.5 79.5v5h45v-5q0 -28 20 -48t48 -20q29 0 48.5 20t19.5 48v5h45v-5q0 -46 -33 -79.5zM61.5 27q24.5 27 24.5 87v535l-67 2v49h124v-582q0 -74 -33.5 -114.5t-92.5 -40.5l-13 37q33 0 57.5 27z" />
    <glyph glyph-name="jcircumflex" unicode="&#x135;" horiz-adv-x="401" 
d="M116 541l-38 39l148 141l142 -141l-38 -39l-105 104zM149 449l-23 52h124v-576q-2 -58 -36 -96t-88 -38l-7 43q0 -3 21 6.5t37.5 34t16.5 69.5v502z" />
    <glyph glyph-name="Kcommaaccent" unicode="&#x136;" horiz-adv-x="475" 
d="M183 345l-48 -76v-269h-56v701h56v-334l224 334h65l-205 -303l257 -398h-67zM225 -132q14 12 20.5 19.5t7.5 9.5l-10 3q-18 13 -18 36q1 12 10.5 21t22.5 9t24.5 -11.5t11.5 -25.5q1 -59 -64 -113l-40 28q21 12 35 24z" />
    <glyph glyph-name="kcommaaccent" unicode="&#x137;" horiz-adv-x="434" 
d="M175 317l-52 -45v-272h-56v700h56v-365l200 185l40 -39l-148 -129q68 -113 219 -352h-67zM201 -132q14 12 20.5 19.5t7.5 9.5l-10 3q-18 13 -18 36q1 12 10.5 21t22.5 9t24.5 -11.5t11.5 -25.5q1 -59 -64 -113l-40 28q21 12 35 24z" />
    <glyph glyph-name="kgreenlandic" unicode="&#x138;" horiz-adv-x="481" 
d="M386.5 14q-26.5 15 -45.5 36.5t-47 59.5l-105 144l-55 -56v-198h-56v512l56 -13v-225l208 227h74l-188 -205l127 -179q28 -38 49.5 -53.5t41.5 -16.5l2 -48q-35 0 -61.5 15z" />
    <glyph glyph-name="Lacute" unicode="&#x139;" horiz-adv-x="440" 
d="M192 848q10 23 34 23q15 0 24 -10t9 -22q0 -9 -5 -17l-69 -92h-44zM78 700h56v-650h305v-50h-361v700z" />
    <glyph glyph-name="lacute" unicode="&#x13a;" horiz-adv-x="286" 
d="M139 852q10 23 34 23q15 0 24 -10t9 -22q0 -9 -5 -17l-69 -92h-44zM78 700h56v-700h-56v700z" />
    <glyph glyph-name="Lcommaaccent" unicode="&#x13b;" horiz-adv-x="440" 
d="M78 700h56v-650h305v-50h-361v700zM236 -132q14 12 20.5 19.5t7.5 9.5l-10 3q-18 13 -18 36q1 12 10.5 21t22.5 9t24.5 -11.5t11.5 -25.5q1 -59 -64 -113l-40 28q21 12 35 24z" />
    <glyph glyph-name="lcommaaccent" unicode="&#x13c;" horiz-adv-x="263" 
d="M119 700h56v-700h-56v700zM113 -132q14 12 20.5 19.5t7.5 9.5l-10 3q-18 13 -18 36q1 12 10.5 21t22.5 9t24.5 -11.5t11.5 -25.5q1 -59 -64 -113l-40 28q21 12 35 24z" />
    <glyph glyph-name="Lcaron" unicode="&#x13d;" horiz-adv-x="555" 
d="M78 875l38 39l109 -104l105 104l38 -39l-142 -141zM193 700h56v-650h305v-50h-361v700z" />
    <glyph glyph-name="lcaron" unicode="&#x13e;" horiz-adv-x="448" 
d="M78 875l38 39l109 -104l105 104l38 -39l-142 -141zM194 700h56v-700h-56v700z" />
    <glyph glyph-name="Lslash" unicode="&#x141;" horiz-adv-x="595" 
d="M201 353l-101 -45l-22 50l123 55v287h56v-262l112 51l23 -50l-135 -61v-328h305v-50h-361v353z" />
    <glyph glyph-name="lslash" unicode="&#x142;" horiz-adv-x="425" 
d="M214 359l-114 -51l-22 50l136 61v230l-67 2v49h123v-256l99 45l23 -50l-122 -55v-384h-56v359z" />
    <glyph glyph-name="Nacute" unicode="&#x143;" horiz-adv-x="650" 
d="M329 848q10 23 34 23q15 0 24 -10t9 -22q0 -9 -5 -17l-69 -92h-44zM134 597v-597h-56v700h56l380 -597v597h56v-700h-56z" />
    <glyph glyph-name="nacute" unicode="&#x144;" horiz-adv-x="480" 
d="M282 656q10 23 34 23q15 0 24 -10t9 -22q0 -9 -5 -17l-69 -92h-44zM392 343q0 61 -35.5 88.5t-91.5 27.5q-34 0 -69 -9.5t-62 -24.5v-425h-56v501h56l-4 -34q24 21 61 31.5t77 10.5q55 0 94 -18q40 -18 62.5 -54t22.5 -91v-346h-55v343z" />
    <glyph glyph-name="Ncommaaccent" unicode="&#x145;" horiz-adv-x="650" 
d="M134 597v-597h-56v700h56l380 -597v597h56v-700h-56zM309 -132q14 12 20.5 19.5t7.5 9.5l-10 3q-18 13 -18 36q1 12 10.5 21t22.5 9t24.5 -11.5t11.5 -25.5q1 -59 -64 -113l-40 28q21 12 35 24z" />
    <glyph glyph-name="ncommaaccent" unicode="&#x146;" horiz-adv-x="500" 
d="M378 343q0 61 -35.5 88.5t-91.5 27.5q-34 0 -69 -9.5t-62 -24.5v-425h-56v501h56l-4 -34q24 21 61 31.5t77 10.5q55 0 94 -18q40 -18 62.5 -54t22.5 -91v-346h-55v343zM213 -132q14 12 20.5 19.5t7.5 9.5l-10 3q-18 13 -18 36q1 12 10.5 21t22.5 9t24.5 -11.5t11.5 -25.5
q1 -59 -64 -113l-40 28q21 12 35 24z" />
    <glyph glyph-name="Ncaron" unicode="&#x147;" horiz-adv-x="650" 
d="M184 875l38 39l109 -104l105 104l38 -39l-142 -141zM134 597v-597h-56v700h56l380 -597v597h56v-700h-56z" />
    <glyph glyph-name="ncaron" unicode="&#x148;" horiz-adv-x="480" 
d="M131 733l38 39l109 -104l105 104l38 -39l-142 -141zM392 343q0 61 -35.5 88.5t-91.5 27.5q-34 0 -69 -9.5t-62 -24.5v-425h-56v501h56l-4 -34q24 21 61 31.5t77 10.5q55 0 94 -18q40 -18 62.5 -54t22.5 -91v-346h-55v343z" />
    <glyph glyph-name="Eng" unicode="&#x14a;" horiz-adv-x="651" 
d="M446 651v49h125v-582q0 -74 -33.5 -114.5t-92.5 -40.5l-13 37q40 0 61 33l-359 564v-597h-56v700h56q357 -551 379 -595v544z" />
    <glyph glyph-name="eng" unicode="&#x14b;" horiz-adv-x="500" 
d="M342.5 431.5q-35.5 27.5 -91.5 27.5q-34 0 -69 -9.5t-62 -24.5v-425h-56v501h56l-4 -34q24 21 61 31.5t77 10.5q55 0 94 -18q40 -18 62.5 -54t22.5 -91v-421q-2 -58 -36 -96t-88 -38l-7 43q0 -3 21 6.5t38 34t17 69.5v399q0 61 -35.5 88.5z" />
    <glyph glyph-name="Omacron" unicode="&#x14c;" horiz-adv-x="549" 
d="M160 788h217v-58h-217v58zM421.5 36.5q-61.5 -47.5 -147.5 -47.5q-54 0 -102 19.5t-78.5 63.5t-30.5 113v322q0 103 56.5 156t155.5 53t153.5 -56t54.5 -154v-321q0 -101 -61.5 -148.5zM385.5 626q-42.5 37 -112.5 37t-112 -37t-42 -110v-330q0 -71 43.5 -107.5
t110.5 -36.5q68 0 111.5 35.5t43.5 109.5v329q0 73 -42.5 110z" />
    <glyph glyph-name="omacron" unicode="&#x14d;" 
d="M156 596h216v-58h-216v58zM405 45q-46 -55 -139 -55t-140.5 55.5t-47.5 138.5v132q0 95 48.5 145.5t139.5 50.5q87 0 136 -52.5t49 -143.5v-132q0 -84 -46 -139zM360.5 426q-34.5 35 -94.5 35q-62 0 -97 -35t-35 -110v-142q0 -60 35.5 -97t96.5 -37q62 0 95.5 36.5
t33.5 97.5v142q0 75 -34.5 110z" />
    <glyph glyph-name="Ohungarumlaut" unicode="&#x150;" horiz-adv-x="549" 
d="M240 849q10 23 34 23q15 0 24 -10t9 -22q0 -9 -5 -17l-69 -92h-44zM352 849q10 23 34 23q15 0 24 -10t9 -22q0 -9 -5 -17l-69 -92h-44zM421.5 36.5q-61.5 -47.5 -147.5 -47.5q-54 0 -102 19.5t-78.5 63.5t-30.5 113v322q0 103 56.5 156t155.5 53t153.5 -56t54.5 -154
v-321q0 -101 -61.5 -148.5zM385.5 626q-42.5 37 -112.5 37t-112 -37t-42 -110v-330q0 -71 43.5 -107.5t110.5 -36.5q68 0 111.5 35.5t43.5 109.5v329q0 73 -42.5 110z" />
    <glyph glyph-name="ohungarumlaut" unicode="&#x151;" 
d="M227 661q10 23 34 23q15 0 24 -10t9 -22q0 -9 -5 -17l-69 -92h-44zM339 661q10 23 34 23q15 0 24 -10t9 -22q0 -9 -5 -17l-69 -92h-44zM405 45q-46 -55 -139 -55t-140.5 55.5t-47.5 138.5v132q0 95 48.5 145.5t139.5 50.5q87 0 136 -52.5t49 -143.5v-132q0 -84 -46 -139z
M360.5 426q-34.5 35 -94.5 35q-62 0 -97 -35t-35 -110v-142q0 -60 35.5 -97t96.5 -37q62 0 95.5 36.5t33.5 97.5v142q0 75 -34.5 110z" />
    <glyph glyph-name="OE" unicode="&#x152;" horiz-adv-x="808" 
d="M441 40q-29 -26 -69 -38.5t-83 -12.5q-54 0 -102 19.5t-78.5 63.5t-30.5 113v322q0 103 56.5 156t155.5 53q97 0 151 -54v38h334v-52h-278v-114q1 -9 1 -28v-93h190l-19 -55h-171v-173l-1 -22v-113h276v-50h-332v40zM391.5 633q-40.5 30 -103.5 30q-70 0 -112 -37
t-42 -110v-330q0 -71 43.5 -107.5t110.5 -36.5q60 0 102 28.5t51 86.5v387q-9 59 -49.5 89z" />
    <glyph glyph-name="oe" unicode="&#x153;" horiz-adv-x="789" 
d="M649 0.5q-46 -12.5 -91 -12.5q-50 0 -87.5 18.5t-56.5 53.5q-24 -32 -61 -51t-87 -19q-93 0 -140.5 55.5t-47.5 138.5v132q0 95 48.5 145.5t139.5 50.5q52 0 91.5 -21.5t63.5 -59.5q23 37 64.5 58t94.5 21q83 0 129.5 -44.5t46.5 -123.5v-130l-304 -17v-61q0 -48 31 -72
t81 -24q70 0 145 40l22 -43q-36 -22 -82 -34.5zM661 436.5q-39 25.5 -82 25.5q-55 0 -91 -30t-36 -94v-88l248 12v87q0 62 -39 87.5zM360.5 426q-34.5 35 -94.5 35q-62 0 -97 -35t-35 -110v-142q0 -60 35.5 -97t96.5 -37q62 0 95.5 36.5t33.5 97.5v142q0 75 -34.5 110z" />
    <glyph glyph-name="Racute" unicode="&#x154;" horiz-adv-x="564" 
d="M278 848q10 23 34 23q15 0 24 -10t9 -22q0 -9 -5 -17l-69 -92h-44zM371 248q-18 -3 -40 -3h-197v-245h-56v700h246q95 0 141.5 -58t46.5 -156q0 -75 -16.5 -133t-71.5 -88l89 -265h-57zM415.5 330q27.5 30 34 68t6.5 85q0 82 -34 123t-94 41h-194v-347h198q56 0 83.5 30z
" />
    <glyph glyph-name="racute" unicode="&#x155;" horiz-adv-x="361" 
d="M189 656q10 23 34 23q15 0 24 -10t9 -22q0 -9 -5 -17l-69 -92h-44zM78 501h56l-3 -35q47 44 123 44q27 0 74 -9l-15 -51q-32 10 -67 10q-46 0 -79 -17t-33 -51v-392h-56v501z" />
    <glyph glyph-name="Rcommaaccent" unicode="&#x156;" horiz-adv-x="564" 
d="M371 248q-18 -3 -40 -3h-197v-245h-56v700h246q95 0 141.5 -58t46.5 -156q0 -75 -16.5 -133t-71.5 -88l89 -265h-57zM415.5 330q27.5 30 34 68t6.5 85q0 82 -34 123t-94 41h-194v-347h198q56 0 83.5 30zM246 -132q14 12 20.5 19.5t7.5 9.5l-10 3q-18 13 -18 36
q1 12 10.5 21t22.5 9t24.5 -11.5t11.5 -25.5q1 -59 -64 -113l-40 28q21 12 35 24z" />
    <glyph glyph-name="rcommaaccent" unicode="&#x157;" horiz-adv-x="333" 
d="M61 501h56l-3 -35q47 44 123 44q27 0 74 -9l-15 -51q-32 10 -67 10q-46 0 -79 -17t-33 -51v-392h-56v501zM106 -132q14 12 20.5 19.5t7.5 9.5l-10 3q-18 13 -18 36q1 12 10.5 21t22.5 9t24.5 -11.5t11.5 -25.5q1 -59 -64 -113l-40 28q21 12 35 24z" />
    <glyph glyph-name="Rcaron" unicode="&#x158;" horiz-adv-x="564" 
d="M137 875l38 39l109 -104l105 104l38 -39l-142 -141zM371 248q-18 -3 -40 -3h-197v-245h-56v700h246q95 0 141.5 -58t46.5 -156q0 -75 -16.5 -133t-71.5 -88l89 -265h-57zM415.5 330q27.5 30 34 68t6.5 85q0 82 -34 123t-94 41h-194v-347h198q56 0 83.5 30z" />
    <glyph glyph-name="rcaron" unicode="&#x159;" horiz-adv-x="401" 
d="M78 733l38 39l109 -104l105 104l38 -39l-142 -141zM79 501h56l-3 -35q47 44 123 44q27 0 74 -9l-15 -51q-32 10 -67 10q-46 0 -79 -17t-33 -51v-392h-56v501z" />
    <glyph glyph-name="Sacute" unicode="&#x15a;" horiz-adv-x="561" 
d="M291 853q10 23 34 23q15 0 24 -10t9 -22q0 -9 -5 -17l-69 -92h-44zM119.5 113q22.5 -31 62 -50.5t90.5 -19.5q77 0 128.5 34.5t51.5 109.5q0 44 -25 73.5t-62 47t-101 40.5q-69 24 -110.5 44.5t-70 55.5t-28.5 90q0 44 25 83.5t75.5 64t124.5 24.5q49 0 81 -7t65 -23
l-17 -53q-57 29 -127 29q-77 0 -123 -32t-46 -89q0 -36 23 -60.5t56.5 -39.5t93.5 -36q73 -25 118 -46.5t76.5 -61t31.5 -99.5q0 -92 -58.5 -147.5t-180.5 -55.5q-74 0 -126.5 27.5t-80 71t-29.5 90.5h57q3 -34 25.5 -65z" />
    <glyph glyph-name="sacute" unicode="&#x15b;" horiz-adv-x="471" 
d="M275 656q10 23 34 23q15 0 24 -10t9 -22q0 -9 -5 -17l-69 -92h-44zM176 59.5q39 -22.5 87 -22.5q45 0 82 20.5t37 66.5q0 30 -17.5 49.5t-43.5 31.5t-70 26q-49 16 -80 30t-54 39.5t-27 64.5l-1 12q0 33 18.5 64.5t57 51.5t96.5 20q32 0 56.5 -6.5t38.5 -13.5t17 -9
l-19 -46q-3 2 -14.5 8t-32.5 12t-46 6q-48 0 -82 -22.5t-34 -62.5q0 -38 31 -58t95 -40q54 -18 87 -34t56.5 -45.5t23.5 -76.5q0 -60 -44.5 -100t-130.5 -40q-57 0 -98.5 19.5t-63 51.5t-23.5 71h53q6 -45 45 -67.5z" />
    <glyph glyph-name="Scircumflex" unicode="&#x15c;" horiz-adv-x="561" 
d="M163 733l-38 39l148 141l142 -141l-38 -39l-105 104zM119.5 113q22.5 -31 62 -50.5t90.5 -19.5q77 0 128.5 34.5t51.5 109.5q0 44 -25 73.5t-62 47t-101 40.5q-69 24 -110.5 44.5t-70 55.5t-28.5 90q0 44 25 83.5t75.5 64t124.5 24.5q49 0 81 -7t65 -23l-17 -53
q-57 29 -127 29q-77 0 -123 -32t-46 -89q0 -36 23 -60.5t56.5 -39.5t93.5 -36q73 -25 118 -46.5t76.5 -61t31.5 -99.5q0 -92 -58.5 -147.5t-180.5 -55.5q-74 0 -126.5 27.5t-80 71t-29.5 90.5h57q3 -34 25.5 -65z" />
    <glyph glyph-name="scircumflex" unicode="&#x15d;" horiz-adv-x="471" 
d="M157 541l-38 39l148 141l142 -141l-38 -39l-105 104zM176 59.5q39 -22.5 87 -22.5q45 0 82 20.5t37 66.5q0 30 -17.5 49.5t-43.5 31.5t-70 26q-49 16 -80 30t-54 39.5t-27 64.5l-1 12q0 33 18.5 64.5t57 51.5t96.5 20q32 0 56.5 -6.5t38.5 -13.5t17 -9l-19 -46
q-3 2 -14.5 8t-32.5 12t-46 6q-48 0 -82 -22.5t-34 -62.5q0 -38 31 -58t95 -40q54 -18 87 -34t56.5 -45.5t23.5 -76.5q0 -60 -44.5 -100t-130.5 -40q-57 0 -98.5 19.5t-63 51.5t-23.5 71h53q6 -45 45 -67.5z" />
    <glyph glyph-name="scedilla" unicode="&#x15f;" horiz-adv-x="431" 
d="M175 -159q16 -4 37 -4q24 0 43 10.5t19 31.5q0 16 -11 26.5t-31 10.5q-14 0 -35 -8l-34 -14l-17 28l50 64q-74 6 -116 46t-44 95h53q6 -45 45 -67.5t87 -22.5q45 0 82 20.5t37 66.5q0 30 -17.5 49.5t-43.5 31.5t-70 26q-49 16 -80 30t-54 39.5t-27 64.5l-1 12
q0 33 18.5 64.5t57 51.5t96.5 20q32 0 56.5 -6.5t38.5 -13.5t17 -9l-19 -46q-3 2 -14.5 8t-32.5 12t-46 6q-48 0 -82 -22.5t-34 -62.5q0 -38 31 -58t95 -40q54 -18 87 -34t56.5 -45.5t23.5 -76.5q0 -57 -40 -96t-118 -43l-29 -39q9 6 36 6q34 0 57.5 -19.5t23.5 -54.5
q0 -48 -37 -68.5t-87 -20.5q-40 0 -92 19l24 53q25 -17 41 -21z" />
    <glyph glyph-name="Scaron" unicode="&#x160;" horiz-adv-x="561" 
d="M154 925l38 39l109 -104l105 104l38 -39l-142 -141zM119.5 113q22.5 -31 62 -50.5t90.5 -19.5q77 0 128.5 34.5t51.5 109.5q0 44 -25 73.5t-62 47t-101 40.5q-69 24 -110.5 44.5t-70 55.5t-28.5 90q0 44 25 83.5t75.5 64t124.5 24.5q49 0 81 -7t65 -23l-17 -53
q-57 29 -127 29q-77 0 -123 -32t-46 -89q0 -36 23 -60.5t56.5 -39.5t93.5 -36q73 -25 118 -46.5t76.5 -61t31.5 -99.5q0 -92 -58.5 -147.5t-180.5 -55.5q-74 0 -126.5 27.5t-80 71t-29.5 90.5h57q3 -34 25.5 -65z" />
    <glyph glyph-name="scaron" unicode="&#x161;" horiz-adv-x="471" 
d="M115 732l38 39l109 -104l105 104l38 -39l-142 -141zM176 59.5q39 -22.5 87 -22.5q45 0 82 20.5t37 66.5q0 30 -17.5 49.5t-43.5 31.5t-70 26q-49 16 -80 30t-54 39.5t-27 64.5l-1 12q0 33 18.5 64.5t57 51.5t96.5 20q32 0 56.5 -6.5t38.5 -13.5t17 -9l-19 -46
q-3 2 -14.5 8t-32.5 12t-46 6q-48 0 -82 -22.5t-34 -62.5q0 -38 31 -58t95 -40q54 -18 87 -34t56.5 -45.5t23.5 -76.5q0 -60 -44.5 -100t-130.5 -40q-57 0 -98.5 19.5t-63 51.5t-23.5 71h53q6 -45 45 -67.5z" />
    <glyph glyph-name="uni0162" unicode="&#x162;" horiz-adv-x="402" 
d="M170 650h-170v50h402v-50h-176v-650h-56v650zM166 -132q14 12 20.5 19.5t7.5 9.5l-10 3q-18 13 -18 36q1 12 10.5 21t22.5 9t24.5 -11.5t11.5 -25.5q1 -59 -64 -113l-40 28q21 12 35 24z" />
    <glyph glyph-name="uni0163" unicode="&#x163;" horiz-adv-x="263" 
d="M89 38q-25 35 -25 94v568h56v-199h120l-24 -53h-96v-316q0 -80 66 -102l-16 -43q-56 16 -81 51zM79 -132q14 12 20.5 19.5t7.5 9.5l-10 3q-18 13 -18 36q1 12 10.5 21t22.5 9t24.5 -11.5t11.5 -25.5q1 -59 -64 -113l-40 28q21 12 35 24z" />
    <glyph glyph-name="Tcaron" unicode="&#x164;" horiz-adv-x="402" 
d="M54 875l38 39l109 -104l105 104l38 -39l-142 -141zM170 650h-170v50h402v-50h-176v-650h-56v650z" />
    <glyph glyph-name="tcaron" unicode="&#x165;" horiz-adv-x="357" 
d="M44 875l38 39l109 -104l105 104l38 -39l-142 -141zM129 38q-25 35 -25 94v568h56v-199h120l-24 -53h-96v-316q0 -80 66 -102l-16 -43q-56 16 -81 51z" />
    <glyph glyph-name="Tbar" unicode="&#x166;" horiz-adv-x="402" 
d="M90 788h217v-58h-217v58zM170 650h-170v50h402v-50h-176v-650h-56v650z" />
    <glyph glyph-name="tbar" unicode="&#x167;" horiz-adv-x="357" 
d="M173 38q-25 35 -25 94v171h-70v55h70v342h56v-199h120l-24 -53h-96v-90h108v-55h-108v-171q0 -80 66 -102l-16 -43q-56 16 -81 51z" />
    <glyph glyph-name="Utilde" unicode="&#x168;" horiz-adv-x="566" 
d="M363 730q-17 0 -32 5t-42 16q-44 21 -71 21q-37 0 -73 -37l-25 39q45 52 95 52q18 0 34 -5t42 -16q26 -10 40 -14.5t29 -4.5q37 0 69 35l25 -39q-43 -52 -91 -52zM495 701v-515q0 -101 -61.5 -147t-148.5 -46t-149 46t-62 147v515h56v-523q0 -61 44.5 -98t109.5 -37
t110 37t45 98v523h56z" />
    <glyph glyph-name="utilde" unicode="&#x169;" 
d="M340 541q-17 0 -32 5t-42 16q-44 21 -71 21q-37 0 -73 -37l-25 39q46 52 95 52q18 0 34 -5t42 -16q26 -10 40 -14.5t29 -4.5q37 0 69 35l25 -39q-43 -52 -91 -52zM400 51q-24 -30 -60.5 -46t-73.5 -16q-188 0 -188 183v329h56v-336q0 -64 35.5 -95t96.5 -31
q60 0 94.5 30.5t34.5 95.5v336h56v-501h-55z" />
    <glyph glyph-name="Umacron" unicode="&#x16a;" horiz-adv-x="566" 
d="M174 788h217v-58h-217v58zM495 701v-515q0 -101 -61.5 -147t-148.5 -46t-149 46t-62 147v515h56v-523q0 -61 44.5 -98t109.5 -37t110 37t45 98v523h56z" />
    <glyph glyph-name="umacron" unicode="&#x16b;" 
d="M151 596h217v-58h-217v58zM400 51q-24 -30 -60.5 -46t-73.5 -16q-188 0 -188 183v329h56v-336q0 -64 35.5 -95t96.5 -31q60 0 94.5 30.5t34.5 95.5v336h56v-501h-55z" />
    <glyph glyph-name="Ubreve" unicode="&#x16c;" horiz-adv-x="566" 
d="M364 757.5q-33 -33.5 -80 -33.5q-46 0 -79.5 33.5t-33.5 79.5v5h45v-5q0 -28 20 -48t48 -20q29 0 48.5 20t19.5 48v5h45v-5q0 -46 -33 -79.5zM495 701v-515q0 -101 -61.5 -147t-148.5 -46t-149 46t-62 147v515h56v-523q0 -61 44.5 -98t109.5 -37t110 37t45 98v523h56z
" />
    <glyph glyph-name="ubreve" unicode="&#x16d;" 
d="M350 568.5q-33 -33.5 -80 -33.5q-46 0 -79.5 33.5t-33.5 79.5v5h45v-5q0 -28 20 -48t48 -20q29 0 48.5 20t19.5 48v5h45v-5q0 -46 -33 -79.5zM400 51q-24 -30 -60.5 -46t-73.5 -16q-188 0 -188 183v329h56v-336q0 -64 35.5 -95t96.5 -31q60 0 94.5 30.5t34.5 95.5v336h56
v-501h-55z" />
    <glyph glyph-name="Uring" unicode="&#x16e;" horiz-adv-x="566" 
d="M204.5 690.5q-33.5 33.5 -33.5 79.5q0 47 33.5 80t79.5 33q47 0 80 -33t33 -80q0 -46 -33 -79.5t-80 -33.5q-46 0 -79.5 33.5zM332.5 818.5q-19.5 19.5 -48.5 19.5q-28 0 -48 -19.5t-20 -48.5q0 -28 20 -48t48 -20q29 0 48.5 20t19.5 48q0 29 -19.5 48.5zM495 701v-515
q0 -101 -61.5 -147t-148.5 -46t-149 46t-62 147v515h56v-523q0 -61 44.5 -98t109.5 -37t110 37t45 98v523h56z" />
    <glyph glyph-name="uring" unicode="&#x16f;" 
d="M190.5 508.5q-33.5 33.5 -33.5 79.5q0 47 33.5 80t79.5 33q47 0 80 -33t33 -80q0 -46 -33 -79.5t-80 -33.5q-46 0 -79.5 33.5zM318.5 636.5q-19.5 19.5 -48.5 19.5q-28 0 -48 -19.5t-20 -48.5q0 -28 20 -48t48 -20q29 0 48.5 20t19.5 48q0 29 -19.5 48.5zM400 51
q-24 -30 -60.5 -46t-73.5 -16q-188 0 -188 183v329h56v-336q0 -64 35.5 -95t96.5 -31q60 0 94.5 30.5t34.5 95.5v336h56v-501h-55z" />
    <glyph glyph-name="Uhungarumlaut" unicode="&#x170;" horiz-adv-x="566" 
d="M252 849q10 23 34 23q15 0 24 -10t9 -22q0 -9 -5 -17l-69 -92h-44zM364 849q10 23 34 23q15 0 24 -10t9 -22q0 -9 -5 -17l-69 -92h-44zM495 701v-515q0 -101 -61.5 -147t-148.5 -46t-149 46t-62 147v515h56v-523q0 -61 44.5 -98t109.5 -37t110 37t45 98v523h56z" />
    <glyph glyph-name="uhungarumlaut" unicode="&#x171;" 
d="M227 661q10 23 34 23q15 0 24 -10t9 -22q0 -9 -5 -17l-69 -92h-44zM339 661q10 23 34 23q15 0 24 -10t9 -22q0 -9 -5 -17l-69 -92h-44zM400 51q-24 -30 -60.5 -46t-73.5 -16q-188 0 -188 183v329h56v-336q0 -64 35.5 -95t96.5 -31q60 0 94.5 30.5t34.5 95.5v336h56v-501
h-55z" />
    <glyph glyph-name="Uogonek" unicode="&#x172;" horiz-adv-x="566" 
d="M323 -202q-23 -11 -56 -11q-31 0 -61.5 17.5t-30.5 64.5q0 25 15.5 55.5t71.5 69.5q-80 6 -134 52t-54 140v515h56v-523q0 -61 44.5 -98t109.5 -37t110 37t45 98v523h56v-515q0 -89 -49 -135.5t-123 -54.5q-52 -44 -75 -73.5t-23 -50.5q0 -17 10 -27.5t29 -10.5
q22 0 35.5 9.5t27.5 31.5l37 -38q-18 -28 -41 -39z" />
    <glyph glyph-name="uogonek" unicode="&#x173;" horiz-adv-x="481" 
d="M402 -202q-23 -11 -56 -11q-31 0 -61.5 17.5t-30.5 64.5q0 26 17 58t79 73h4l4 51q-24 -30 -60.5 -46t-73.5 -16q-188 0 -188 183v329h56v-336q0 -64 35.5 -95t96.5 -31q60 0 94.5 30.5t34.5 95.5v336h56v-501h-1q-56 -46 -80 -75.5t-24 -52.5q0 -17 10 -27.5t29 -10.5
q22 0 35.5 9.5t27.5 31.5l37 -38q-18 -28 -41 -39z" />
    <glyph glyph-name="Ydieresis" unicode="&#x178;" horiz-adv-x="560" 
d="M181 741q-10 10 -10 23q0 14 10 23.5t23 9.5q14 0 23.5 -9.5t9.5 -23.5q0 -13 -9.5 -23t-23.5 -10q-13 0 -23 10zM337 741q-10 10 -10 23q0 14 10 23.5t23 9.5q14 0 23.5 -9.5t9.5 -23.5q0 -13 -9.5 -23t-23.5 -10q-13 0 -23 10zM429.5 66.5q17.5 26.5 17.5 85.5v142
q-27 -24 -72 -36.5t-86 -12.5q-106 0 -167.5 52.5t-61.5 155.5v247h56v-257q0 -70 48 -106.5t125 -36.5q59 0 103 25t55 75v300h57v-544q0 -73 -27.5 -114.5t-77.5 -48.5l-13 37q26 10 43.5 36.5z" />
    <glyph glyph-name="Zacute" unicode="&#x179;" horiz-adv-x="550" 
d="M255 903q10 23 34 23q15 0 24 -10t9 -22q0 -9 -5 -17l-69 -92h-44zM31 50l410 599h-397v51h468v-50l-410 -599h416v-51h-487v50z" />
    <glyph glyph-name="zacute" unicode="&#x17a;" horiz-adv-x="478" 
d="M275 656q10 23 34 23q15 0 24 -10t9 -22q0 -9 -5 -17l-69 -92h-44zM78 50l275 400h-266v51h337v-50l-277 -400h298v-51h-367v50z" />
    <glyph glyph-name="Zdotaccent" unicode="&#x17b;" horiz-adv-x="550" 
d="M264.5 736.5q-10.5 10.5 -10.5 23.5t10 23t24 10t23.5 -9.5t9.5 -23.5t-10 -24t-23 -10t-23.5 10.5zM31 50l410 599h-397v51h468v-50l-410 -599h416v-51h-487v50z" />
    <glyph glyph-name="zdotaccent" unicode="&#x17c;" horiz-adv-x="478" 
d="M237.5 545.5q-10.5 10.5 -10.5 23.5t10 23t24 10t23.5 -9.5t9.5 -23.5t-10 -24t-23 -10t-23.5 10.5zM78 50l275 400h-266v51h337v-50l-277 -400h298v-51h-367v50z" />
    <glyph glyph-name="Zcaron" unicode="&#x17d;" horiz-adv-x="550" 
d="M154 925l38 39l109 -104l105 104l38 -39l-142 -141zM31 50l410 599h-397v51h468v-50l-410 -599h416v-51h-487v50z" />
    <glyph glyph-name="zcaron" unicode="&#x17e;" horiz-adv-x="478" 
d="M142 732l38 39l109 -104l105 104l38 -39l-142 -141zM78 50l275 400h-266v51h337v-50l-277 -400h298v-51h-367v50z" />
    <glyph glyph-name="Scommaaccent" unicode="&#x218;" horiz-adv-x="561" 
d="M119.5 113q22.5 -31 62 -50.5t90.5 -19.5q77 0 128.5 34.5t51.5 109.5q0 44 -25 73.5t-62 47t-101 40.5q-69 24 -110.5 44.5t-70 55.5t-28.5 90q0 44 25 83.5t75.5 64t124.5 24.5q49 0 81 -7t65 -23l-17 -53q-57 29 -127 29q-77 0 -123 -32t-46 -89q0 -36 23 -60.5
t56.5 -39.5t93.5 -36q73 -25 118 -46.5t76.5 -61t31.5 -99.5q0 -92 -58.5 -147.5t-180.5 -55.5q-74 0 -126.5 27.5t-80 71t-29.5 90.5h57q3 -34 25.5 -65zM240 -132q14 12 20.5 19.5t7.5 9.5l-10 3q-18 13 -18 36q1 12 10.5 21t22.5 9t24.5 -11.5t11.5 -25.5q1 -59 -64 -113
l-40 28q21 12 35 24z" />
    <glyph glyph-name="scommaaccent" unicode="&#x219;" horiz-adv-x="431" 
d="M134 59.5q39 -22.5 87 -22.5q45 0 82 20.5t37 66.5q0 30 -17.5 49.5t-43.5 31.5t-70 26q-49 16 -80 30t-54 39.5t-27 64.5l-1 12q0 33 18.5 64.5t57 51.5t96.5 20q32 0 56.5 -6.5t38.5 -13.5t17 -9l-19 -46q-3 2 -14.5 8t-32.5 12t-46 6q-48 0 -82 -22.5t-34 -62.5
q0 -38 31 -58t95 -40q54 -18 87 -34t56.5 -45.5t23.5 -76.5q0 -60 -44.5 -100t-130.5 -40q-57 0 -98.5 19.5t-63 51.5t-23.5 71h53q6 -45 45 -67.5zM181 -132q14 12 20.5 19.5t7.5 9.5l-10 3q-18 13 -18 36q1 12 10.5 21t22.5 9t24.5 -11.5t11.5 -25.5q1 -59 -64 -113
l-40 28q21 12 35 24z" />
    <glyph glyph-name="uni0237" unicode="&#x237;" horiz-adv-x="242" 
d="M108 449l-23 52h124v-576q-2 -58 -36 -96t-88 -38l-7 43q0 -3 21 6.5t37.5 34t16.5 69.5v502z" />
    <glyph glyph-name="circumflex" unicode="&#x2c6;" horiz-adv-x="394" 
d="M84 591l-38 39l148 141l142 -141l-38 -39l-105 104z" />
    <glyph glyph-name="caron" unicode="&#x2c7;" horiz-adv-x="394" 
d="M46 732l38 39l109 -104l105 104l38 -39l-142 -141z" />
    <glyph glyph-name="breve" unicode="&#x2d8;" horiz-adv-x="330" 
d="M239 615.5q-33 -33.5 -80 -33.5q-46 0 -79.5 33.5t-33.5 79.5v5h45v-5q0 -28 20 -48t48 -20q29 0 48.5 20t19.5 48v5h45v-5q0 -46 -33 -79.5z" />
    <glyph glyph-name="dotaccent" unicode="&#x2d9;" horiz-adv-x="67" 
d="M10.5 653.5q-10.5 10.5 -10.5 23.5t10 23t24 10t23.5 -9.5t9.5 -23.5t-10 -24t-23 -10t-23.5 10.5z" />
    <glyph glyph-name="ring" unicode="&#x2da;" horiz-adv-x="222" 
d="M31.5 582.5q-33.5 33.5 -33.5 79.5q0 47 33.5 80t79.5 33q47 0 80 -33t33 -80q0 -46 -33 -79.5t-80 -33.5q-46 0 -79.5 33.5zM159.5 710.5q-19.5 19.5 -48.5 19.5q-28 0 -48 -19.5t-20 -48.5q0 -28 20 -48t48 -20q29 0 48.5 20t19.5 48q0 29 -19.5 48.5z" />
    <glyph glyph-name="ogonek" unicode="&#x2db;" horiz-adv-x="222" 
d="M224 -199q-23 -11 -56 -11q-31 0 -61.5 17.5t-30.5 64.5q0 26 17 58t79 73h58q-56 -46 -80 -75.5t-24 -52.5q0 -17 10 -27.5t29 -10.5q22 0 35.5 9.5t27.5 31.5l37 -38q-18 -28 -41 -39z" />
    <glyph glyph-name="tilde" unicode="&#x2dc;" horiz-adv-x="445" 
d="M321 606q-17 0 -32 5t-42 16q-44 21 -71 21q-37 0 -73 -37l-25 39q45 52 95 52q18 0 34 -5t42 -16q26 -10 40 -14.5t29 -4.5q37 0 69 35l25 -39q-43 -52 -91 -52z" />
    <glyph glyph-name="hungarumlaut" unicode="&#x2dd;" horiz-adv-x="226" 
d="M49 686q10 23 34 23q15 0 24 -10t9 -22q0 -9 -5 -17l-69 -92h-44zM161 686q10 23 34 23q15 0 24 -10t9 -22q0 -9 -5 -17l-69 -92h-44z" />
    <glyph glyph-name="dieresistonos" unicode="&#x385;" horiz-adv-x="333" 
d="M217 849q10 23 34 23q15 0 24 -10t9 -22q0 -9 -5 -17l-69 -92h-44zM88 674q-10 10 -10 23q0 14 10 23.5t23 9.5q14 0 23.5 -9.5t9.5 -23.5q0 -13 -9.5 -23t-23.5 -10q-13 0 -23 10zM244 674q-10 10 -10 23q0 14 10 23.5t23 9.5q14 0 23.5 -9.5t9.5 -23.5q0 -13 -9.5 -23
t-23.5 -10q-13 0 -23 10z" />
    <glyph glyph-name="Alphatonos" unicode="&#x386;" horiz-adv-x="616" 
d="M135 686q10 23 34 23q15 0 24 -10t9 -22q0 -9 -5 -17l-69 -92h-44zM443 245h-228l-78 -245h-59l224 700h53l228 -700h-60zM231 300h197l-100 313z" />
    <glyph glyph-name="Epsilontonos" unicode="&#x388;" horiz-adv-x="612" 
d="M129 686q10 23 34 23q15 0 24 -10t9 -22q0 -9 -5 -17l-69 -92h-44zM245 700h334v-52h-278v-235h191l-19 -55h-172v-308h276v-50h-332v700z" />
    <glyph glyph-name="Etatonos" unicode="&#x389;" horiz-adv-x="710" 
d="M129 686q10 23 34 23q15 0 24 -10t9 -22q0 -9 -5 -17l-69 -92h-44zM621 358h-318v-358h-56v700h56v-287h318v287h56v-700h-56v358z" />
    <glyph glyph-name="Iotatonos" unicode="&#x38a;" horiz-adv-x="390" 
d="M129 686q10 23 34 23q15 0 24 -10t9 -22q0 -9 -5 -17l-69 -92h-44zM301 649l-67 2v49h123v-700h-56v649z" />
    <glyph glyph-name="Omicrontonos" unicode="&#x38c;" horiz-adv-x="648" 
d="M553.5 36.5q-61.5 -47.5 -147.5 -47.5q-54 0 -102 19.5t-78.5 63.5t-30.5 113v322q0 103 56.5 156t155.5 53t153.5 -56t54.5 -154v-321q0 -101 -61.5 -148.5zM129 686q10 23 34 23q15 0 24 -10t9 -22q0 -9 -5 -17l-69 -92h-44zM517.5 626q-42.5 37 -112.5 37t-112 -37
t-42 -110v-330q0 -71 43.5 -107.5t110.5 -36.5q68 0 111.5 35.5t43.5 109.5v329q0 73 -42.5 110z" />
    <glyph glyph-name="Upsilontonos" unicode="&#x38e;" horiz-adv-x="714" 
d="M129 686q10 23 34 23q15 0 24 -10t9 -22q0 -9 -5 -17l-69 -92h-44zM606.5 66.5q17.5 26.5 17.5 85.5v142q-27 -24 -72 -36.5t-86 -12.5q-106 0 -167.5 52.5t-61.5 155.5v247h56v-257q0 -70 48 -106.5t125 -36.5q59 0 103 25t55 75v300h57v-544q0 -73 -27.5 -114.5
t-77.5 -48.5l-13 37q26 10 43.5 36.5z" />
    <glyph glyph-name="Omegatonos" unicode="&#x38f;" horiz-adv-x="719" 
d="M129 686q10 23 34 23q15 0 24 -10t9 -22q0 -9 -5 -17l-69 -92h-44zM458 51q53 10 82.5 20t53 39.5t23.5 85.5v317q0 67 -36.5 105t-95.5 38h-112q-59 0 -95.5 -38t-36.5 -105v-317q0 -56 23.5 -85.5t53 -39.5t82.5 -20v-51h-228l17 51h65q-32 20 -50.5 54t-18.5 91v307
q0 92 47 148t141 56h112q94 0 141 -56t47 -148v-307q0 -57 -20 -91t-53 -54h69l17 -51h-228v51z" />
    <glyph glyph-name="iotadieresistonos" unicode="&#x390;" horiz-adv-x="333" 
d="M220 697q10 23 34 23q15 0 24 -10t9 -22q0 -9 -5 -17l-69 -92h-44zM88 551q-10 10 -10 23q0 14 10 23.5t23 9.5q14 0 23.5 -9.5t9.5 -23.5q0 -13 -9.5 -23t-23.5 -10q-13 0 -23 10zM244 551q-10 10 -10 23q0 14 10 23.5t23 9.5q14 0 23.5 -9.5t9.5 -23.5q0 -13 -9.5 -23
t-23.5 -10q-13 0 -23 10zM162 501h56v-501h-56v501z" />
    <glyph glyph-name="Alpha" unicode="&#x391;" horiz-adv-x="523" 
d="M377 245h-228l-78 -245h-59l224 700h53l228 -700h-60zM165 300h197l-100 313z" />
    <glyph glyph-name="Beta" unicode="&#x392;" horiz-adv-x="544" 
d="M78 700h221q82 0 129 -42t47 -128q0 -39 -13 -74t-53 -62l-1 -2v-1q44 -20 73.5 -65t29.5 -117q0 -86 -46.5 -147.5t-156.5 -61.5h-230v700zM385 443q32 30 32 87q0 117 -126 117h-157v-234h163q56 0 88 30zM412 89q39 36 39 124q0 70 -38 107.5t-90 37.5h-189v-305h172
q67 0 106 36z" />
    <glyph glyph-name="Gamma" unicode="&#x393;" horiz-adv-x="445" 
d="M78 700h334v-53h-278v-647h-56v700z" />
    <glyph glyph-name="uni0394" unicode="&#x394;" horiz-adv-x="523" 
d="M236 700h53l228 -700h-505zM86 50h355l-179 563z" />
    <glyph glyph-name="Epsilon" unicode="&#x395;" horiz-adv-x="445" 
d="M78 700h334v-52h-278v-235h191l-19 -55h-172v-308h276v-50h-332v700z" />
    <glyph glyph-name="Zeta" unicode="&#x396;" horiz-adv-x="598" 
d="M78 50l410 599h-397v51h468v-50l-410 -599h416v-51h-487v50z" />
    <glyph glyph-name="Eta" unicode="&#x397;" horiz-adv-x="581" 
d="M454 358h-318v-358h-56v700h56v-287h318v287h56v-700h-56v358z" />
    <glyph glyph-name="Theta" unicode="&#x398;" horiz-adv-x="595" 
d="M500.5 36.5q-61.5 -47.5 -147.5 -47.5q-54 0 -102 19.5t-78.5 63.5t-30.5 113v322q0 103 56.5 156t155.5 53t153.5 -56t54.5 -154v-321q0 -101 -61.5 -148.5zM507 358v158q0 73 -42.5 110t-112.5 37t-112 -37t-42 -110v-158h309zM198 303v-117q0 -71 43.5 -107.5
t110.5 -36.5q68 0 111.5 35.5t43.5 109.5v116h-309z" />
    <glyph glyph-name="Iota" unicode="&#x399;" horiz-adv-x="274" 
d="M147 649l-67 2v49h123v-700h-56v649z" />
    <glyph glyph-name="Kappa" unicode="&#x39a;" horiz-adv-x="508" 
d="M182 345l-48 -76v-269h-56v701h56v-334l224 334h65l-205 -303l257 -398h-67z" />
    <glyph glyph-name="Lambda" unicode="&#x39b;" horiz-adv-x="523" 
d="M262 613l-191 -613h-59l224 700h53l228 -700h-60z" />
    <glyph glyph-name="Mu" unicode="&#x39c;" horiz-adv-x="687" 
d="M560 535l-182 -535h-61l-181 535v-535h-56v700h56l211 -614l213 614h56v-700h-56v535z" />
    <glyph glyph-name="Nu" unicode="&#x39d;" horiz-adv-x="643" 
d="M136 597v-597h-56v700h56l380 -597v597h56v-700h-56z" />
    <glyph glyph-name="Xi" unicode="&#x39e;" horiz-adv-x="620" 
d="M159.5 631.5q-26.5 -17.5 -38.5 -52.5l-43 16q16 56 51 81t94 25h325l-21 -52h-304q-37 0 -63.5 -17.5zM205 413h264v-55h-264v55zM138 52h304q37 0 63.5 17.5t38.5 52.5l43 -16q-16 -56 -51 -81t-94 -25h-325z" />
    <glyph glyph-name="Omicron" unicode="&#x39f;" horiz-adv-x="543" 
d="M420.5 36.5q-61.5 -47.5 -147.5 -47.5q-54 0 -102 19.5t-78.5 63.5t-30.5 113v322q0 103 56.5 156t155.5 53t153.5 -56t54.5 -154v-321q0 -101 -61.5 -148.5zM384.5 626q-42.5 37 -112.5 37t-112 -37t-42 -110v-330q0 -71 43.5 -107.5t110.5 -36.5q68 0 111.5 35.5
t43.5 109.5v329q0 73 -42.5 110z" />
    <glyph glyph-name="Pi" unicode="&#x3a0;" horiz-adv-x="581" 
d="M454 645h-318v-645h-56v700h430v-700h-56v645z" />
    <glyph glyph-name="Rho" unicode="&#x3a1;" horiz-adv-x="545" 
d="M78 700h246q95 0 141.5 -58t46.5 -156q0 -63 -10 -113.5t-50 -89t-121 -38.5h-197v-245h-56v700zM415.5 330q27.5 30 34 68t6.5 85q0 82 -34 123t-94 41h-194v-347h198q56 0 83.5 30z" />
    <glyph glyph-name="Sigma" unicode="&#x3a3;" horiz-adv-x="579" 
d="M304 384l-210 318h428l-18 -53h-309l176 -262l-200 -336h226q38 0 66 18.5t40 52.5l43 -16q-16 -56 -51 -81t-94 -25h-323z" />
    <glyph glyph-name="Tau" unicode="&#x3a4;" horiz-adv-x="513" 
d="M248 650h-170v50h402v-50h-176v-650h-56v650z" />
    <glyph glyph-name="Upsilon" unicode="&#x3a5;" horiz-adv-x="556" 
d="M429.5 66.5q17.5 26.5 17.5 85.5v142q-27 -24 -72 -36.5t-86 -12.5q-106 0 -167.5 52.5t-61.5 155.5v247h56v-257q0 -70 48 -106.5t125 -36.5q59 0 103 25t55 75v300h57v-544q0 -73 -27.5 -114.5t-77.5 -48.5l-13 37q26 10 43.5 36.5z" />
    <glyph glyph-name="Phi" unicode="&#x3a6;" horiz-adv-x="638" 
d="M310 30h-44q-95 0 -141.5 52t-46.5 143v292q0 74 29.5 122.5t86.5 66.5l30 -45q-43 -11 -66.5 -46.5t-23.5 -97.5v-302q0 -66 36 -100t96 -34h44v524q3 50 32 78t76 28q87 0 137 -54.5t50 -145.5v-286q0 -91 -46.5 -143t-141.5 -52h-49v-65l-58 13v52zM530 598.5
q-19 30.5 -47.5 45t-56.5 14.5q-33 0 -45.5 -18.5t-12.5 -43.5v-515h49q60 0 96 34t36 100v306q0 47 -19 77.5z" />
    <glyph glyph-name="Chi" unicode="&#x3a7;" horiz-adv-x="618" 
d="M332 294l-185 -294h-69l221 352l-202 348h63l172 -294l174 294h63l-203 -348l219 -352h-69z" />
    <glyph glyph-name="Psi" unicode="&#x3a8;" horiz-adv-x="632" 
d="M293 212h-44q-95 0 -141.5 51.5t-46.5 142.5v294h56v-304q0 -66 36 -100t96 -34h44v438h58v-438h49q60 0 96 34t36 100v168q0 40 -5.5 63.5t-14 35.5t-25.5 30l45 16q27 -17 39 -41.5t14.5 -50.5t2.5 -68v-143q0 -91 -46.5 -142.5t-141.5 -51.5h-49v-212h-57z" />
    <glyph glyph-name="Iotadieresis" unicode="&#x3aa;" horiz-adv-x="373" 
d="M90 741q-10 10 -10 23q0 14 10 23.5t23 9.5q14 0 23.5 -9.5t9.5 -23.5q0 -13 -9.5 -23t-23.5 -10q-13 0 -23 10zM246 741q-10 10 -10 23q0 14 10 23.5t23 9.5q14 0 23.5 -9.5t9.5 -23.5q0 -13 -9.5 -23t-23.5 -10q-13 0 -23 10zM164 649l-67 2v49h123v-700h-56v649z" />
    <glyph glyph-name="Upsilondieresis_alt" unicode="&#x3ab;" horiz-adv-x="507" 
d="M131 739q-10 10 -10 23q0 14 10 23.5t23 9.5q14 0 23.5 -9.5t9.5 -23.5q0 -13 -9.5 -23t-23.5 -10q-13 0 -23 10zM287 739q-10 10 -10 23q0 14 10 23.5t23 9.5q14 0 23.5 -9.5t9.5 -23.5q0 -13 -9.5 -23t-23.5 -10q-13 0 -23 10zM210 340l-208 360h63l172 -294l174 294
h63l-208 -358v-342h-56v340z" />
    <glyph glyph-name="alphatonos" unicode="&#x3ac;" horiz-adv-x="506" 
d="M288 656q10 23 34 23q15 0 24 -10t9 -22q0 -9 -5 -17l-69 -92h-44zM426.5 3.5q-13.5 1.5 -20.5 0.5l-21 -2q-11 -1 -45.5 -4t-61.5 -3q-93 0 -146.5 37.5t-53.5 136.5v185q0 81 40.5 117.5t106.5 36.5q39 0 82.5 -11.5t79.5 -29.5l19 41l44 -22l-4 -44t-3 -53v-312
q0 -4 7.5 -18.5t22.5 -23.5l-27 -33q-6 0 -19.5 1.5zM227 456q-94 0 -94 -105v-189q0 -65 35 -91t106 -26q50 0 113 9v361q-103 41 -160 41z" />
    <glyph glyph-name="epsilontonos" unicode="&#x3ad;" horiz-adv-x="456" 
d="M276 656q10 23 34 23q15 0 24 -10t9 -22q0 -9 -5 -17l-69 -92h-44zM393 12q-24 -8 -61.5 -15.5t-78.5 -7.5q-77 0 -123 41t-51 102l-1 19q0 97 75 128q-21 11 -38 41.5t-17 65.5q0 6 2 20q8 54 52 79.5t106 25.5q52 0 95 -15v-51q-47 14 -94 14q-45 0 -74 -17t-29 -55
q0 -33 20 -59.5t57 -26.5h119l-19 -54h-100q-47 0 -73 -26t-26 -71q0 -52 31 -80.5t93 -28.5q35 0 68 7.5t54 15t27 10.5l16 -51q-6 -3 -30 -11z" />
    <glyph glyph-name="etatonos" unicode="&#x3ae;" horiz-adv-x="480" 
d="M300 656q10 23 34 23q15 0 24 -10t9 -22q0 -9 -5 -17l-69 -92h-44zM392 343q0 61 -35.5 88.5t-91.5 27.5q-34 0 -69 -9.5t-62 -24.5v-425h-56v501h56l-4 -34q24 21 61 31.5t77 10.5q55 0 94 -18q40 -18 62.5 -54t22.5 -91v-556l-55 24v529z" />
    <glyph glyph-name="iotatonos" unicode="&#x3af;" horiz-adv-x="239" 
d="M139 656q10 23 34 23q15 0 24 -10t9 -22q0 -9 -5 -17l-69 -92h-44zM78 501h56v-501h-56v501z" />
    <glyph glyph-name="upsilondieresistonos" unicode="&#x3b0;" horiz-adv-x="491" 
d="M292 697q10 23 34 23q15 0 24 -10t9 -22q0 -9 -5 -17l-69 -92h-44zM160 551q-10 10 -10 23q0 14 10 23.5t23 9.5q14 0 23.5 -9.5t9.5 -23.5q0 -13 -9.5 -23t-23.5 -10q-13 0 -23 10zM316 551q-10 10 -10 23q0 14 10 23.5t23 9.5q14 0 23.5 -9.5t9.5 -23.5q0 -13 -9.5 -23
t-23.5 -10q-13 0 -23 10zM458 501v-329q0 -182 -192 -182q-188 0 -188 182v329h56v-336q0 -64 35.5 -94.5t96.5 -30.5q64 0 100 30t36 95v336h56z" />
    <glyph glyph-name="alpha" unicode="&#x3b1;" horiz-adv-x="506" 
d="M426.5 3.5q-13.5 1.5 -20.5 0.5l-21 -2q-11 -1 -45.5 -4t-61.5 -3q-93 0 -146.5 37.5t-53.5 136.5v185q0 81 40.5 117.5t106.5 36.5q39 0 82.5 -11.5t79.5 -29.5l19 41l44 -22l-4 -44t-3 -53v-312q0 -4 7.5 -18.5t22.5 -23.5l-27 -33q-6 0 -19.5 1.5zM227 456
q-94 0 -94 -105v-189q0 -65 35 -91t106 -26q50 0 113 9v361q-103 41 -160 41z" />
    <glyph glyph-name="beta" unicode="&#x3b2;" horiz-adv-x="481" 
d="M78 537q0 77 34.5 120.5t105.5 43.5q39 0 68 -18.5t44.5 -47.5t15.5 -61q0 -48 -33 -80q59 -11 97 -54t38 -110v-184q0 -90 -57 -127.5t-148 -37.5q-52 0 -109 10v-152h-56v698zM247 508q19 6 29.5 23t10.5 38q0 30 -19 54t-50 24q-83 0 -83 -106v-78q50 26 112 45z
M356.5 416q-36.5 28 -93.5 28q-33 0 -67.5 -8.5t-60.5 -22.5v-373q62 -10 107 -10q151 0 151 111v186q0 61 -36.5 89z" />
    <glyph glyph-name="gamma" unicode="&#x3b3;" horiz-adv-x="479" 
d="M193 -127q0 23 9 49l22 73q-27 19 -40 31.5t-27 36t-28 66.5l-108 372h57l106 -361q12 -42 22.5 -62.5t34.5 -33.5l104 344q16 54 37 83.5t65 39.5l37 -31q-6 -3 -25 -11.5t-34.5 -30t-28.5 -62.5l-125 -418q-22 -66 -22 -90q0 -19 11 -36l-38 -30q-29 26 -29 71z" />
    <glyph glyph-name="delta" unicode="&#x3b4;" 
d="M266 -10q-95 0 -141.5 51.5t-46.5 142.5v126q0 80 35 130.5t102 63.5q-19 18 -29 42.5t-10 49.5q0 45 30.5 77t86.5 32h45l-21 -51h-33q-22 0 -36 -16t-14 -40q0 -20 11 -39.5t34 -34.5q59 -39 93.5 -68.5t56.5 -70.5t22 -97v-104q0 -194 -185 -194zM383 353
q-12 30 -40 60.5t-72 50.5q-66 -6 -101.5 -42.5t-35.5 -111.5v-136q0 -66 36 -100t96 -34t94.5 32t34.5 102v127q0 22 -12 52z" />
    <glyph glyph-name="epsilon" unicode="&#x3b5;" horiz-adv-x="456" 
d="M393 12q-24 -8 -61.5 -15.5t-78.5 -7.5q-77 0 -123 41t-51 102l-1 19q0 97 75 128q-21 11 -38 41.5t-17 65.5q0 6 2 20q8 54 52 79.5t106 25.5q52 0 95 -15v-51q-47 14 -94 14q-45 0 -74 -17t-29 -55q0 -33 20 -59.5t57 -26.5h119l-19 -54h-100q-47 0 -73 -26t-26 -71
q0 -52 31 -80.5t93 -28.5q35 0 68 7.5t54 15t27 10.5l16 -51q-6 -3 -30 -11z" />
    <glyph glyph-name="zeta" unicode="&#x3b6;" horiz-adv-x="467" 
d="M351 8q-41 -10 -80 -10q-80 0 -130 39.5t-60 100.5q-3 18 -3 38q0 40 9.5 82.5t26.5 77.5q76 158 242 317h-210v47h272l16 -49q-59 -46 -129 -127t-118 -167q-24 -42 -38 -88.5t-14 -87.5q0 -67 39 -99q37 -30 103 -30q53 0 130 20v-255l-56 -26v217z" />
    <glyph glyph-name="eta" unicode="&#x3b7;" horiz-adv-x="480" 
d="M392 343q0 61 -35.5 88.5t-91.5 27.5q-34 0 -69 -9.5t-62 -24.5v-425h-56v501h56l-4 -34q24 21 61 31.5t77 10.5q55 0 94 -18q40 -18 62.5 -54t22.5 -91v-556l-55 24v529z" />
    <glyph glyph-name="theta" unicode="&#x3b8;" horiz-adv-x="503" 
d="M392.5 48q-49.5 -54 -140.5 -54q-92 1 -141 54.5t-49 142.5v150q2 64 53 97q-34 59 -34 118q0 67 45 110.5t124 43.5q95 -2 143.5 -56t48.5 -149v-314q0 -89 -49.5 -143zM261.5 496q51.5 11 97.5 11q18 0 27 -1q0 81 -39 116t-96 35q-56 0 -83 -28.5t-27 -73.5
q0 -47 24 -92q45 22 96.5 33zM364 453q-50 0 -108 -14.5t-98 -40.5t-40 -57v-156q0 -44 19 -75t49.5 -47t65.5 -16t65.5 16t49.5 47t19 75v267q-7 1 -22 1z" />
    <glyph glyph-name="iota" unicode="&#x3b9;" horiz-adv-x="159" 
d="M66 501h56v-501h-56v501z" />
    <glyph glyph-name="kappa" unicode="&#x3ba;" horiz-adv-x="481" 
d="M386.5 14q-26.5 15 -45.5 36.5t-47 59.5l-105 144l-55 -56v-198h-56v512l56 -13v-225l208 227h74l-188 -205l127 -179q28 -38 49.5 -53.5t41.5 -16.5l2 -48q-35 0 -61.5 15z" />
    <glyph glyph-name="lambda" unicode="&#x3bb;" horiz-adv-x="574" 
d="M439 29.5q-21 29.5 -37 83.5l-104 344q-24 -13 -34.5 -33.5t-22.5 -62.5l-106 -361h-57l108 372q14 43 28 66.5t27 36t40 31.5l-23 71q-26 76 -94 80v43q61 1 94 -23.5t53 -83.5l142 -468q17 -51 33 -69t32.5 -25t22.5 -10l-37 -31q-44 10 -65 39.5z" />
    <glyph glyph-name="uni03BC" unicode="&#x3bc;" horiz-adv-x="518" 
d="M436.5 1q-12.5 7 -22.5 24q-37 -37 -114 -37q-15 0 -23 1q-43 5 -73.5 16.5t-47 21t-21.5 11.5v-248l-57 9v702h57v-396q17 -17 61 -41t102 -24q103 0 103 113v345l57 12v-441q0 -5 6 -19t21 -23l-27 -33q-9 0 -21.5 7z" />
    <glyph glyph-name="nu" unicode="&#x3bd;" horiz-adv-x="496" 
d="M78 501h59l133 -443l134 443h59l-155 -501h-77z" />
    <glyph glyph-name="xi" unicode="&#x3be;" horiz-adv-x="413" 
d="M326 2q-26 -5 -62 -5q-82 0 -134 40.5t-52 126.5v184q0 47 20.5 83.5t53 57.5t69.5 25q-18 15 -27.5 37.5t-9.5 47.5q0 45 30 77t86 32h45l-21 -51h-33q-22 0 -36 -16.5t-14 -41.5q0 -20 11 -40t34 -35q21 -13 44.5 -21t27.5 -9l-16 -44q-43 12 -79 12q-57 0 -93.5 -28
t-36.5 -89v-186q0 -57 37.5 -83t97.5 -26q51 0 112 18v-260l-54 -26v220z" />
    <glyph glyph-name="omicron" unicode="&#x3bf;" 
d="M405 45q-46 -55 -139 -55t-140.5 55.5t-47.5 138.5v132q0 95 48.5 145.5t139.5 50.5q87 0 136 -52.5t49 -143.5v-132q0 -84 -46 -139zM360.5 426q-34.5 35 -94.5 35q-62 0 -97 -35t-35 -110v-142q0 -60 35.5 -97t96.5 -37q62 0 95.5 36.5t33.5 97.5v142q0 75 -34.5 110z
" />
    <glyph glyph-name="pi" unicode="&#x3c0;" horiz-adv-x="511" 
d="M430.5 0.5q-16.5 8.5 -29.5 27.5t-13 51l1 375h-267v-454h-56v501h379v-432q0 -4 7 -18.5t22 -23.5l-27 -33q0 -2 -16.5 6.5z" />
    <glyph glyph-name="rho" unicode="&#x3c1;" 
d="M78 315q0 89 49 140.5t138 51.5q96 0 141 -53.5t45 -146.5v-135q0 -88 -46.5 -135t-138.5 -47q-90 0 -134 54v-239l-54 -16v526zM358 423q-37 32 -94 32q-55 0 -92.5 -32t-37.5 -109v-149q0 -63 36 -94t96 -31t94.5 30.5t34.5 94.5v148q0 78 -37 110z" />
    <glyph glyph-name="uni03C2" unicode="&#x3c2;" horiz-adv-x="409" 
d="M324 -85q0 21 -11 41.5t-33 34.5q-18 12 -27 17q-60 38 -94.5 65t-57.5 65t-23 89v140q0 32 16.5 63.5t55 53t100.5 21.5q32 0 56.5 -6t38.5 -12.5t17 -8.5l-19 -46q-3 2 -14 7.5t-31 11t-45 5.5q-49 0 -84 -23.5t-35 -62.5v-124q0 -45 15 -76.5t49.5 -61t103.5 -71.5
q37 -22 55.5 -54.5t18.5 -66.5q0 -35 -19 -63l-43 27q10 17 10 35z" />
    <glyph glyph-name="sigma" unicode="&#x3c3;" horiz-adv-x="532" 
d="M266 -19q-95 0 -141.5 51.5t-46.5 142.5v179q0 81 47.5 117t121.5 36q26 0 39 -2q40 -5 62 -5q33 0 58 9.5t52 33.5l41 -15q-19 -33 -41.5 -50.5t-53.5 -25.5q20 -14 33.5 -53t13.5 -89v-135q0 -194 -185 -194zM383.5 384q-11.5 31 -25 48t-17.5 16q-53 10 -91 10
q-55 0 -85.5 -24.5t-30.5 -82.5v-186q0 -66 36 -100t96 -34t94.5 32t34.5 102v145q0 43 -11.5 74z" />
    <glyph glyph-name="tau" unicode="&#x3c4;" horiz-adv-x="412" 
d="M223 38q-25 35 -25 94v315h-120v53h301v-53h-125v-315q0 -80 66 -102l-16 -43q-56 16 -81 51z" />
    <glyph glyph-name="upsilon" unicode="&#x3c5;" horiz-adv-x="483" 
d="M446 501v-329q0 -182 -192 -182q-188 0 -188 182v329h56v-336q0 -64 35.5 -94.5t96.5 -30.5q64 0 100 30t36 95v336h56z" />
    <glyph glyph-name="phi" unicode="&#x3c6;" horiz-adv-x="638" 
d="M310 -5h-44q-95 0 -141.5 51.5t-46.5 142.5v125q0 74 29.5 122.5t86.5 66.5l30 -45q-43 -11 -66.5 -46.5t-23.5 -97.5v-135q0 -66 36 -100t96 -34h44v356q3 50 32 78t76 28q87 0 137 -54.5t50 -145.5v-118q0 -91 -46.5 -142.5t-141.5 -51.5h-49v-211l-57 13zM530 394.5
q-19 30.5 -47.5 45t-56.5 14.5q-33 0 -45.5 -18.5t-12.5 -43.5v-347h49q60 0 96 34t36 100v138q0 47 -19 77.5z" />
    <glyph glyph-name="chi" unicode="&#x3c7;" horiz-adv-x="577" 
d="M438.5 -187q-31.5 26 -54.5 71l-102 208l-151 -296l-53 20l173 339l-168 346h63l137 -284l145 284h63l-178 -348l121 -249q20 -42 41 -55t41 -16t28 -5l-28 -40q-46 -1 -77.5 25z" />
    <glyph glyph-name="psi" unicode="&#x3c8;" horiz-adv-x="639" 
d="M310 -5h-44q-95 0 -141.5 51.5t-46.5 142.5v311h56v-321q0 -66 36 -100t96 -34h44v455h58v-455h49q60 0 96 34t36 100v182q0 40 -5.5 63.5t-14 35.5t-25.5 30l45 16q27 -17 39 -41.5t14.5 -50.5t2.5 -68v-157q0 -91 -46.5 -142.5t-141.5 -51.5h-49v-214l-58 13v201z" />
    <glyph glyph-name="omega" unicode="&#x3c9;" horiz-adv-x="635" 
d="M520 411.5q-22 32.5 -61 44.5l32 44q53 -20 80 -67.5t27 -115.5v-129q0 -200 -161 -200q-31 0 -59 12.5t-46 40.5q-19 -27 -47 -40t-58 -13q-161 0 -161 200v129q0 68 27 115.5t80 67.5l32 -44q-39 -12 -61 -44.5t-22 -84.5v-149q0 -70 29.5 -103.5t72.5 -33.5
q41 0 59 29t20 88v141h58v-141q1 -59 19 -88t60 -29q43 0 72.5 33.5t29.5 103.5v149q0 52 -22 84.5z" />
    <glyph glyph-name="iotadieresis" unicode="&#x3ca;" horiz-adv-x="276" 
d="M31 549q-10 10 -10 23q0 14 10 23.5t23 9.5q14 0 23.5 -9.5t9.5 -23.5q0 -13 -9.5 -23t-23.5 -10q-13 0 -23 10zM187 549q-10 10 -10 23q0 14 10 23.5t23 9.5q14 0 23.5 -9.5t9.5 -23.5q0 -13 -9.5 -23t-23.5 -10q-13 0 -23 10zM105 501h56v-501h-56v501z" />
    <glyph glyph-name="upsilondieresis" unicode="&#x3cb;" horiz-adv-x="491" 
d="M168 549q-10 10 -10 23q0 14 10 23.5t23 9.5q14 0 23.5 -9.5t9.5 -23.5q0 -13 -9.5 -23t-23.5 -10q-13 0 -23 10zM324 549q-10 10 -10 23q0 14 10 23.5t23 9.5q14 0 23.5 -9.5t9.5 -23.5q0 -13 -9.5 -23t-23.5 -10q-13 0 -23 10zM458 501v-329q0 -182 -192 -182
q-188 0 -188 182v329h56v-336q0 -64 35.5 -94.5t96.5 -30.5q64 0 100 30t36 95v336h56z" />
    <glyph glyph-name="omicrontonos" unicode="&#x3cc;" 
d="M290 656q10 23 34 23q15 0 24 -10t9 -22q0 -9 -5 -17l-69 -92h-44zM405 45q-46 -55 -139 -55t-140.5 55.5t-47.5 138.5v132q0 95 48.5 145.5t139.5 50.5q87 0 136 -52.5t49 -143.5v-132q0 -84 -46 -139zM360.5 426q-34.5 35 -94.5 35q-62 0 -97 -35t-35 -110v-142
q0 -60 35.5 -97t96.5 -37q62 0 95.5 36.5t33.5 97.5v142q0 75 -34.5 110z" />
    <glyph glyph-name="upsilontonos" unicode="&#x3cd;" horiz-adv-x="491" 
d="M300 656q10 23 34 23q15 0 24 -10t9 -22q0 -9 -5 -17l-69 -92h-44zM458 501v-329q0 -182 -192 -182q-188 0 -188 182v329h56v-336q0 -64 35.5 -94.5t96.5 -30.5q64 0 100 30t36 95v336h56z" />
    <glyph glyph-name="omegatonos" unicode="&#x3ce;" horiz-adv-x="643" 
d="M374 656q10 23 34 23q15 0 24 -10t9 -22q0 -9 -5 -17l-69 -92h-44zM532 411.5q-22 32.5 -61 44.5l32 44q53 -20 80 -67.5t27 -115.5v-129q0 -200 -161 -200q-31 0 -59 12.5t-46 40.5q-19 -27 -47 -40t-58 -13q-161 0 -161 200v129q0 68 27 115.5t80 67.5l32 -44
q-39 -12 -61 -44.5t-22 -84.5v-149q0 -70 29.5 -103.5t72.5 -33.5q41 0 59 29t20 88v141h58v-141q1 -59 19 -88t60 -29q43 0 72.5 33.5t29.5 103.5v149q0 52 -22 84.5z" />
    <glyph glyph-name="quoteleft" unicode="&#x2018;" horiz-adv-x="101" 
d="M68 592q-1 -12 -10.5 -21t-22.5 -9q-14 0 -25 12.5t-11 26.5q0 57 64 111l40 -28q-21 -12 -35 -24t-20.5 -19.5t-7.5 -9.5l10 -3q18 -13 18 -36z" />
    <glyph glyph-name="quoteright" unicode="&#x2019;" horiz-adv-x="101" 
d="M33 612q14 12 20.5 19.5t7.5 9.5l-10 3q-18 13 -18 36q1 12 10.5 21t22.5 9t24.5 -11.5t11.5 -25.5q1 -59 -64 -113l-40 28q21 12 35 24z" />
    <glyph glyph-name="quotesinglbase" unicode="&#x201a;" horiz-adv-x="159" 
d="M46 -32q14 12 20.5 19.5t7.5 9.5l-10 3q-18 13 -18 36q1 12 10.5 21t22.5 9t24.5 -11.5t11.5 -25.5q1 -59 -64 -113l-40 28q21 12 35 24z" />
    <glyph glyph-name="quotedblleft" unicode="&#x201c;" horiz-adv-x="252" 
d="M68 596q-1 -12 -10.5 -21t-22.5 -9q-14 0 -25 12.5t-11 26.5q0 57 64 111l40 -28q-21 -12 -35 -24t-20.5 -19.5t-7.5 -9.5l10 -3q18 -13 18 -36zM219 596q-1 -12 -10.5 -21t-22.5 -9q-14 0 -25 12.5t-11 26.5q0 57 64 111l40 -28q-21 -12 -35 -24t-20.5 -19.5t-7.5 -9.5
l10 -3q18 -13 18 -36z" />
    <glyph glyph-name="quotedblright" unicode="&#x201d;" horiz-adv-x="252" 
d="M33 612q14 12 20.5 19.5t7.5 9.5l-10 3q-18 13 -18 36q1 12 10.5 21t22.5 9t24.5 -11.5t11.5 -25.5q1 -59 -64 -113l-40 28q21 12 35 24zM184 612q14 12 20.5 19.5t7.5 9.5l-10 3q-18 13 -18 36q1 12 10.5 21t22.5 9t24.5 -11.5t11.5 -25.5q1 -59 -64 -113l-40 28
q21 12 35 24z" />
    <glyph glyph-name="quotedblbase" unicode="&#x201e;" horiz-adv-x="310" 
d="M46 -30q14 12 20.5 19.5t7.5 9.5l-10 3q-18 13 -18 36q1 12 10.5 21t22.5 9t24.5 -11.5t11.5 -25.5q1 -59 -64 -113l-40 28q21 12 35 24zM197 -30q14 12 20.5 19.5t7.5 9.5l-10 3q-18 13 -18 36q1 12 10.5 21t22.5 9t24.5 -11.5t11.5 -25.5q1 -59 -64 -113l-40 28
q21 12 35 24z" />
    <glyph glyph-name="bullet" unicode="&#x2022;" horiz-adv-x="468" 
d="M166.5 182q-40.5 24 -64.5 65t-24 90t24 89.5t64.5 64.5t89.5 24t90 -24t65 -64.5t24 -89.5t-24 -90t-65 -65t-90 -24t-89.5 24z" />
    <glyph glyph-name="ellipsis" unicode="&#x2026;" horiz-adv-x="477" 
d="M21 10q-10 10 -10 23q0 14 10 23.5t23 9.5q14 0 23.5 -9.5t9.5 -23.5q0 -13 -9.5 -23t-23.5 -10q-13 0 -23 10zM198 10q-10 10 -10 23q0 14 10 23.5t23 9.5q14 0 23.5 -9.5t9.5 -23.5q0 -13 -9.5 -23t-23.5 -10q-13 0 -23 10zM378 10q-10 10 -10 23q0 14 10 23.5t23 9.5
q14 0 23.5 -9.5t9.5 -23.5q0 -13 -9.5 -23t-23.5 -10q-13 0 -23 10z" />
    <glyph glyph-name="perthousand" unicode="&#x2030;" horiz-adv-x="1047" 
d="M645 740l40 -41l-572 -698l-35 40zM156 458.5q-33 19.5 -52.5 52.5t-19.5 72t19.5 72t52.5 52.5t72 19.5t72 -19.5t52.5 -52.5t19.5 -72t-19.5 -72t-52.5 -52.5t-72 -19.5t-72 19.5zM296 648.5q-26 28.5 -68 28.5t-68 -28.5t-26 -65.5t26 -65.5t68 -28.5t68 28.5t26 65.5
t-26 65.5zM467 8.5q-33 19.5 -52.5 52.5t-19.5 72t19.5 72t52.5 52.5t72 19.5t72 -19.5t52.5 -52.5t19.5 -72t-19.5 -72t-52.5 -52.5t-72 -19.5t-72 19.5zM798 8.5q-33 19.5 -52.5 52.5t-19.5 72t19.5 72t52.5 52.5t72 19.5t72 -19.5t52.5 -52.5t19.5 -72t-19.5 -72
t-52.5 -52.5t-72 -19.5t-72 19.5zM607 198.5q-26 28.5 -68 28.5t-68 -28.5t-26 -65.5t26 -65.5t68 -28.5t68 28.5t26 65.5t-26 65.5zM938 198.5q-26 28.5 -68 28.5t-68 -28.5t-26 -65.5t26 -65.5t68 -28.5t68 28.5t26 65.5t-26 65.5z" />
    <glyph glyph-name="guilsinglleft" unicode="&#x2039;" horiz-adv-x="268" 
d="M42 267v1l187 187l37 -38l-150 -150l148 -153l-35 -34z" />
    <glyph glyph-name="guilsinglright" unicode="&#x203a;" horiz-adv-x="292" 
d="M153 267l-150 150l37 38l187 -187v-1l-187 -187l-35 34z" />
    <glyph glyph-name="fraction" unicode="&#x2044;" horiz-adv-x="492" 
d="M402 817h57l-320 -931h-61z" />
    <glyph glyph-name="Euro" unicode="&#x20ac;" horiz-adv-x="527" 
d="M328 -10q-87 0 -141 46t-54 147v70h-55v55h55v50h-55v55h55v91q0 76 21.5 115t65.5 66q44 25 108 25q78 0 141 -33l-16 -38q-57 21 -108 21q-61 0 -108.5 -30t-47.5 -117v-100h209v-55h-209v-50h209v-55h-209v-68q0 -69 36 -106.5t108 -37.5q63 0 149 29l12 -47
q-89 -33 -166 -33z" />
    <glyph glyph-name="trademark" unicode="&#x2122;" horiz-adv-x="585" 
d="M431 632l-40 -120h-31l-40 120v-120h-48v142h-56v-142h-48v142h-63v46h231l39 -108l38 108h64v-188h-46v120z" />
    <glyph glyph-name="uni2126" unicode="&#x2126;" horiz-adv-x="625" 
d="M364 51q53 10 82.5 20t53 39.5t23.5 85.5v317q0 67 -36.5 105t-95.5 38h-112q-59 0 -95.5 -38t-36.5 -105v-317q0 -56 23.5 -85.5t53 -39.5t82.5 -20v-51h-228l17 51h65q-32 20 -50.5 54t-18.5 91v307q0 92 47 148t141 56h112q94 0 141 -56t47 -148v-307q0 -57 -20 -91
t-53 -54h69l17 -51h-228v51z" />
    <glyph glyph-name="uni2206" unicode="&#x2206;" horiz-adv-x="616" 
d="M302 700h53l228 -700h-505zM152 50h355l-179 563z" />
    </font>
</defs>
</svg>
